<?xml version="1.0" encoding="UTF-8"?>
<svg version="1.1" xmlns="http://www.w3.org/2000/svg" width="512" height="512">
<path d="M0 0 C2.0073557 1.81473066 4.05598859 3.55157312 6.1328125 5.28515625 C47.98154153 41.90279415 74.61249497 98.77631525 82.3203125 153.09765625 C82.49763916 154.33725098 82.67496582 155.5768457 82.85766602 156.85400391 C84.32988058 167.78152139 84.68208407 178.58058581 84.6328125 189.59765625 C84.63065735 190.4706134 84.6285022 191.34357056 84.62628174 192.24298096 C84.37348975 256.34255378 60.69280356 316.37894208 17.5078125 363.6875 C15.38764633 366.02346879 13.3233394 368.400925 11.2578125 370.78515625 C8.24961204 374.16423074 5.1314057 377.20139826 1.671875 380.11328125 C-0.10827253 381.61546554 -1.8584928 383.15320845 -3.59375 384.70703125 C-17.89476901 397.4470387 -33.60876756 408.14979255 -50.58300781 417.00244141 C-52.5708718 418.04081563 -54.54342009 419.10414999 -56.515625 420.171875 C-72.01325866 428.40587001 -88.68112063 434.21244582 -105.5546875 438.91015625 C-106.4832959 439.17578369 -107.4119043 439.44141113 -108.36865234 439.71508789 C-128.01743443 444.92953456 -148.01269839 446.77081214 -168.28417969 446.61914062 C-171.67976202 446.59765578 -175.0732298 446.61912592 -178.46875 446.64453125 C-198.79777538 446.6712334 -218.85483196 444.2067911 -238.4921875 438.84765625 C-240.1623291 438.4005127 -240.1623291 438.4005127 -241.86621094 437.94433594 C-292.54740799 423.97182155 -340.38102403 392.81000053 -372.6796875 351.09765625 C-373.12779785 350.53127441 -373.5759082 349.96489258 -374.03759766 349.38134766 C-382.60838601 338.53081661 -389.84490221 327.10721131 -396.6796875 315.09765625 C-397.09347656 314.3799707 -397.50726563 313.66228516 -397.93359375 312.92285156 C-410.28809772 291.34324356 -418.03978723 267.53413294 -423.4296875 243.34765625 C-423.62852539 242.46207031 -423.82736328 241.57648438 -424.03222656 240.6640625 C-427.53611381 224.19639346 -428.08494922 208.06604159 -428.0546875 191.28515625 C-428.05414368 190.15348022 -428.05359985 189.0218042 -428.05303955 187.85583496 C-428.01567114 170.9551513 -427.45633421 154.64011105 -423.6796875 138.09765625 C-423.46006348 137.11104004 -423.24043945 136.12442383 -423.01416016 135.10791016 C-418.42494706 115.00696193 -411.60968782 95.67239327 -402.6796875 77.09765625 C-402.18178711 76.0607666 -402.18178711 76.0607666 -401.67382812 75.00292969 C-390.29369816 51.68136742 -374.65182209 30.72174252 -356.6796875 12.09765625 C-356.11314453 11.50919922 -355.54660156 10.92074219 -354.96289062 10.31445312 C-286.17175535 -60.75705128 -179.55777058 -83.86185012 0 0 Z M-195.6796875 42.09765625 C-200.5018638 49.77475284 -202.8997443 57.34816774 -201.25390625 66.453125 C-198.98648211 75.42544751 -194.36277776 81.72206936 -186.4921875 86.59765625 C-183.42084032 88.33889245 -181.16422497 89.22652188 -177.6796875 90.09765625 C-177.3496875 97.02765625 -177.0196875 103.95765625 -176.6796875 111.09765625 C-173.3796875 111.09765625 -170.0796875 111.09765625 -166.6796875 111.09765625 C-166.6796875 103.83765625 -166.6796875 96.57765625 -166.6796875 89.09765625 C-164.3696875 88.76765625 -162.0596875 88.43765625 -159.6796875 88.09765625 C-152.4135515 84.29219311 -145.71845143 77.32786256 -143.1484375 69.46484375 C-141.62873883 61.79036548 -141.41761667 52.90887704 -145.6796875 46.09765625 C-151.3803163 38.48523121 -157.1499967 33.05703193 -166.6796875 31.09765625 C-178.1901519 29.97602953 -188.05311765 33.14914763 -195.6796875 42.09765625 Z M-287.2109375 134.89453125 C-292.85931602 142.31623791 -292.97718182 149.49641264 -292.97021484 158.55371094 C-292.97693207 159.80648834 -292.98364929 161.05926575 -292.99057007 162.3500061 C-293.00628605 165.77590722 -293.01292358 169.20156585 -293.01420164 172.62748623 C-293.01562668 174.77206641 -293.01990301 176.91662145 -293.02519608 179.06119537 C-293.04368324 186.55513615 -293.05186858 194.04900593 -293.05029297 201.54296875 C-293.04909279 208.50829717 -293.070174 215.47331511 -293.1017803 222.43856502 C-293.12801049 228.43456109 -293.13865741 234.4304562 -293.13738215 240.42650914 C-293.13687437 244.00054303 -293.14245413 247.57430098 -293.16373825 251.14827728 C-293.18686461 255.14040523 -293.1775588 259.13184653 -293.16552734 263.12402344 C-293.17676636 264.29424042 -293.18800537 265.4644574 -293.19958496 266.6701355 C-293.12187609 276.84962469 -290.66499556 284.88461789 -283.59765625 292.34375 C-273.76957862 301.33113667 -262.93568547 301.41053002 -250.2421875 301.51171875 C-248.75145425 301.53045548 -247.26073132 301.55003072 -245.77001953 301.57040405 C-241.8706474 301.62146698 -237.97124098 301.6612299 -234.07171631 301.69854736 C-230.08288268 301.7387502 -226.09418849 301.78976779 -222.10546875 301.83984375 C-214.29697108 301.93629654 -206.48840525 302.02079804 -198.6796875 302.09765625 C-198.23322372 303.24494957 -198.23322372 303.24494957 -197.77774048 304.41542053 C-196.5077567 307.51763503 -194.93812535 310.31345004 -193.265625 313.21875 C-192.76562485 314.09056664 -192.76562485 314.09056664 -192.25552368 314.97999573 C-191.19162245 316.83348527 -190.1232789 318.68436757 -189.0546875 320.53515625 C-188.36037431 321.7426645 -187.66636155 322.95034555 -186.97265625 324.15820312 C-185.5857562 326.57228747 -184.19723405 328.98542785 -182.80761719 331.39794922 C-179.41639473 337.28911889 -176.04891037 343.19388715 -172.6796875 349.09765625 C-169.92455314 346.6289647 -168.27997526 343.91990834 -166.45703125 340.71484375 C-165.84037598 339.63710693 -165.2237207 338.55937012 -164.58837891 337.44897461 C-163.93788574 336.30178955 -163.28739258 335.15460449 -162.6171875 333.97265625 C-161.60785864 332.20554973 -160.59675303 330.43946733 -159.58563232 328.67338562 C-158.91160996 327.49573787 -158.23814748 326.3177695 -157.56524658 325.13948059 C-154.67826257 320.08503931 -151.75490132 315.05290386 -148.8046875 310.03515625 C-148.39468506 309.33438965 -147.98468262 308.63362305 -147.56225586 307.91162109 C-144.80149148 303.21946023 -144.80149148 303.21946023 -143.6796875 302.09765625 C-141.70806457 301.9896885 -139.73260049 301.95136934 -137.75805664 301.93994141 C-136.48906021 301.92967926 -135.22006378 301.91941711 -133.91261292 301.90884399 C-133.22926943 301.90540607 -132.54592594 301.90196815 -131.84187508 301.89842606 C-129.7008398 301.88664167 -127.56000668 301.86718409 -125.41905212 301.8453064 C-119.32948678 301.78371905 -113.23993534 301.72989574 -107.15014648 301.69628906 C-103.42702707 301.67518907 -99.7042652 301.63975133 -95.98135185 301.59553146 C-94.56899707 301.58147543 -93.1565789 301.5726728 -91.74415779 301.56947708 C-79.66599819 301.53929161 -69.03647539 300.32517663 -59.6796875 292.09765625 C-51.84864342 283.01843265 -50.2282406 273.43586658 -50.29150391 261.76000977 C-50.28624695 260.55556213 -50.28098999 259.3511145 -50.27557373 258.11016846 C-50.26468952 254.83108433 -50.26716051 251.55236801 -50.27671099 248.27328992 C-50.28435751 244.8253287 -50.27724806 241.37739038 -50.27255249 237.9294281 C-50.26710863 232.14032646 -50.27424962 226.35133998 -50.28857422 220.56225586 C-50.30489045 213.89171183 -50.2996143 207.2214431 -50.283095 200.55090576 C-50.26943164 194.80112259 -50.26758427 189.05142176 -50.27541101 183.30162758 C-50.28006201 179.87749251 -50.28078418 176.45348634 -50.27080154 173.02935982 C-50.26314755 169.20761884 -50.27484785 165.38639959 -50.29150391 161.56469727 C-50.28239487 159.88657204 -50.28239487 159.88657204 -50.27310181 158.17454529 C-50.36310588 146.97643092 -52.68164498 138.18851938 -60.6796875 130.09765625 C-68.27121039 123.73277081 -75.94758027 121.7871726 -85.74287415 121.83023071 C-86.51373972 121.8256996 -87.28460529 121.82116849 -88.07883042 121.81650007 C-90.6402625 121.80392466 -93.20148008 121.80547196 -95.76293945 121.80712891 C-97.60831981 121.80113939 -99.45369767 121.79433287 -101.29907227 121.78677368 C-106.29712508 121.76915016 -111.29510936 121.76441986 -116.29319024 121.76314211 C-119.41972769 121.76171795 -122.54624785 121.75744334 -125.67278099 121.75214767 C-136.59135413 121.73365986 -147.50987852 121.72547555 -158.4284668 121.72705078 C-168.58841753 121.72825202 -178.74815577 121.70714994 -188.90805274 121.67556345 C-197.64632801 121.64936975 -206.38453401 121.63868478 -215.12284821 121.6399616 C-220.33502475 121.6404703 -225.54701231 121.63483806 -230.75914955 121.6136055 C-235.66354374 121.59417082 -240.56756968 121.59413434 -245.47197723 121.60863876 C-247.26537047 121.61072144 -249.05878708 121.60605847 -250.85214043 121.59391785 C-265.6512283 121.50027015 -277.09362255 123.02217188 -287.2109375 134.89453125 Z M-320.6796875 165.09765625 C-325.55219239 170.06284466 -326.83063923 173.48337564 -326.85668945 180.29785156 C-326.86326065 181.03953079 -326.86983185 181.78121002 -326.87660217 182.54536438 C-326.89634895 185.00550433 -326.90800178 187.46558315 -326.91796875 189.92578125 C-326.92204428 190.7659655 -326.9261198 191.60614975 -326.93031883 192.47179413 C-326.95118708 196.92015844 -326.96548459 201.36849184 -326.97485352 205.81689453 C-326.9859098 210.40809289 -327.02029824 214.9988055 -327.06002522 219.58983231 C-327.0861952 223.12264903 -327.09454575 226.65535019 -327.09813499 230.18825531 C-327.10300127 231.88031031 -327.11461648 233.57236013 -327.13317299 235.26432037 C-327.15756974 237.63656335 -327.15659881 240.0075523 -327.1496582 242.37988281 C-327.16246826 243.07517593 -327.17527832 243.77046906 -327.18847656 244.48683167 C-327.1355085 249.46986263 -325.76458514 252.24342853 -322.6796875 256.09765625 C-316.41859292 261.74791234 -313.91646608 261.09765625 -304.6796875 261.09765625 C-304.6796875 228.42765625 -304.6796875 195.75765625 -304.6796875 162.09765625 C-313.74333357 161.6125875 -313.74333357 161.6125875 -320.6796875 165.09765625 Z M-39.6796875 162.09765625 C-39.6796875 194.76765625 -39.6796875 227.43765625 -39.6796875 261.09765625 C-29.78776871 261.32632797 -29.78776871 261.32632797 -21.6796875 257.09765625 C-17.43542096 251.76511624 -16.55478163 247.88284376 -16.50268555 241.18286133 C-16.49611435 240.48326294 -16.48954315 239.78366455 -16.48277283 239.06286621 C-16.46306458 236.74763882 -16.45138099 234.43247632 -16.44140625 232.1171875 C-16.43733072 231.32454687 -16.4332552 230.53190624 -16.42905617 229.7152462 C-16.40820304 225.51744219 -16.39389972 221.31967076 -16.38452148 217.12182617 C-16.37347619 212.79875918 -16.3390963 208.47620962 -16.29934978 204.15332508 C-16.27312384 200.81858911 -16.26482424 197.48397514 -16.26124001 194.14914513 C-16.25638716 192.55642908 -16.24481045 190.96371801 -16.22620201 189.37110329 C-15.99716963 177.64531363 -15.99716963 177.64531363 -20.6796875 167.09765625 C-26.99798563 161.08756778 -30.15949427 162.09765625 -39.6796875 162.09765625 Z " fill="#9C26B0" transform="translate(427.6796875,65.90234375)"/>
<path d="M0 0 C6.57851312 4.02333957 11.09558354 9.86510232 13.125 17.28515625 C14.85867746 26.0618984 12.39632507 32.77695822 7.875 40.3125 C2.02771055 45.84371975 -5.0182588 48.94617019 -13.09765625 48.765625 C-21.72156256 47.78661727 -27.36742361 44.40497697 -32.87890625 37.81640625 C-37.35972274 31.15694716 -37.24581287 24.30234633 -36.4375 16.5 C-34.30557613 9.07297219 -30.1320133 4.25298473 -23.4375 0.5 C-16.57868923 -2.84294979 -7.02430725 -3.11273223 0 0 Z M-22.75 14.625 C-25.04318413 18.53190629 -25.77312683 21.97702894 -25.4375 26.5 C-23.30277671 30.85155133 -20.64607457 34.06837914 -16.4375 36.5 C-11.71898228 37.35632359 -8.35933125 36.96091562 -4.0625 34.8125 C-0.87749961 32.00666632 1.21239682 29.89237172 1.84375 25.578125 C2.04756737 21.0601734 1.47477474 18.11523761 -1.4375 14.5 C-5.76616834 10.66685937 -5.76616834 10.66685937 -11.1875 9.25 C-16.10184909 9.62802685 -19.14646818 11.31364644 -22.75 14.625 Z " fill="#9C26B0" transform="translate(331.4375,235.5)"/>
<path d="M0 0 C6.16176834 3.75524079 10.96072819 9.54242443 13.12890625 16.4375 C14.61721429 23.51701934 13.61153896 29.96987203 10.5625 36.5 C6.736558 42.35144071 1.19697779 46.0937367 -5.484375 48.12109375 C-13.06788932 49.59229553 -20.18918606 48.27456256 -26.64453125 44.05859375 C-32.71677431 39.20305245 -35.83006061 34.11075423 -36.84765625 26.38671875 C-37.19722663 18.75891387 -36.08244574 12.67465143 -31.4375 6.5 C-23.15564249 -1.53139811 -10.97395831 -4.86296976 0 0 Z M-22.75 14.6875 C-24.91485126 18.29558543 -25.65213239 21.29815822 -25.4375 25.5 C-23.89707435 29.71590179 -21.86465897 32.60833462 -18.4375 35.5 C-14.70898658 36.74283781 -11.31003239 37.0280726 -7.4375 36.5 C-3.07805847 34.27915243 -0.26919536 32.07923841 1.5625 27.5 C2.11724139 23.27009689 2.01337269 19.69348654 0.5 15.6875 C-2.87608316 11.87579321 -6.44520899 9.784613 -11.5 9.0625 C-16.21160198 9.76422796 -19.29976222 11.42376156 -22.75 14.6875 Z " fill="#9C26B0" transform="translate(203.4375,235.5)"/>
<path d="M0 0 C1.60073525 2.15316291 2.96997649 4.40329107 4.3828125 6.68359375 C8.91398719 13.17389952 16.44435061 17.10041583 24 19 C33.7766868 20.1916857 42.71297667 18.9179944 50.73046875 12.9765625 C54.60287945 9.62466786 57.98150566 6.27735905 60.8125 2 C63 -1 63 -1 65.5625 -2.125 C68 -2 68 -2 70.3125 -0.9375 C72 1 72 1 72.625 3.625 C70.92430163 12.80877122 63.18188918 19.61619661 56 25 C45.41830062 31.72191414 31.83575717 33.33786041 19.68359375 30.765625 C13.13187469 28.89643004 7.49842818 26.03218067 2 22 C0.5459375 20.9790625 0.5459375 20.9790625 -0.9375 19.9375 C-5.27222224 16.22531765 -8.73871148 11.20891063 -11 6 C-10.66219461 0.58861743 -10.66219461 0.58861743 -8.3125 -1.5 C-4.74034939 -2.27235689 -3.24027423 -1.74974809 0 0 Z " fill="#9C26B0" transform="translate(225,305)"/>
</svg>
