<?xml version="1.0" encoding="UTF-8"?>
<svg version="1.1" xmlns="http://www.w3.org/2000/svg" width="512" height="512">
<path d="M0 0 C0.68436668 -0.00297112 1.36873335 -0.00594224 2.07383841 -0.0090034 C4.37221054 -0.01769058 6.67053059 -0.01919866 8.96891785 -0.02069092 C10.61477774 -0.02531908 12.26063657 -0.03034374 13.90649414 -0.03573608 C18.38178283 -0.04886228 22.85705652 -0.05530547 27.33236146 -0.05974674 C30.12799612 -0.06267711 32.92362667 -0.06678185 35.71925926 -0.07125092 C44.46513246 -0.08492643 53.21099628 -0.09459282 61.95687944 -0.09845281 C72.05460883 -0.10293384 82.15220287 -0.12048358 92.2498911 -0.1494534 C100.05380526 -0.17106574 107.85768132 -0.18115685 115.66162509 -0.18249393 C120.3231636 -0.18354228 124.9845749 -0.18945645 129.64608192 -0.20731354 C134.03161332 -0.22378647 138.41692177 -0.22595353 142.80247307 -0.21717453 C144.41090619 -0.21640374 146.01935125 -0.22075246 147.62775421 -0.23063278 C149.82623878 -0.24334448 152.02393277 -0.23748038 154.22241211 -0.22705078 C155.45187467 -0.22851734 156.68133722 -0.2299839 157.94805622 -0.2314949 C162.95939108 0.32429165 166.2024528 1.95208653 169.61418152 5.64044189 C171.90305249 9.03136186 172.42700205 11.56604184 172.44212341 15.56092834 C172.44783356 16.46511002 172.4535437 17.36929169 172.45942688 18.3008728 C172.46110367 19.7853743 172.46110367 19.7853743 172.46281433 21.29986572 C172.46777924 22.34405167 172.47274414 23.38823761 172.4778595 24.46406555 C172.49248798 27.92520807 172.49928431 31.38630476 172.50480652 34.84747314 C172.51055742 37.25019838 172.51631517 39.6529236 172.52207947 42.0556488 C172.53259142 47.09701756 172.53843282 52.13837036 172.54191589 57.17974854 C172.54740085 63.63950326 172.57142831 70.09904723 172.59988785 76.55873585 C172.61851183 81.52327592 172.62371971 86.48776521 172.62525177 91.45233727 C172.62827938 93.83376912 172.63631152 96.21520006 172.64943695 98.59659767 C172.66649191 101.92883969 172.66461827 105.26056651 172.65812683 108.59283447 C172.66734161 109.57642944 172.6765564 110.56002441 172.68605042 111.57342529 C172.65383409 116.85285298 172.29224612 120.59173069 169.30168152 125.14044189 C164.95992456 129.15656708 161.83633146 130.26756229 156.0040741 130.25396729 C154.92318008 130.25389175 153.84228607 130.25381622 152.7286377 130.2537384 C151.56293747 130.24857712 150.39723724 130.24341583 149.19621277 130.23809814 C148.00187119 130.2366832 146.8075296 130.23526825 145.57699585 130.23381042 C141.75603244 130.22820539 137.93512727 130.215652 134.11418152 130.20294189 C131.52629174 130.19792754 128.93840104 130.19336453 126.35050964 130.18927002 C120.00087777 130.17823432 113.65128952 130.16096626 107.30168152 130.14044189 C107.30168152 137.40044189 107.30168152 144.66044189 107.30168152 152.14044189 C109.01355652 152.09403564 110.72543152 152.04762939 112.48918152 151.99981689 C114.75999732 151.96228275 117.0308321 151.92588436 119.30168152 151.89044189 C120.42703308 151.85692627 121.55238464 151.82341064 122.71183777 151.78887939 C129.0388022 151.71487981 135.36270381 151.64545365 140.30168152 156.14044189 C142.30168152 161.14044189 142.30168152 161.14044189 142.30168152 173.14044189 C99.40168152 173.14044189 56.50168152 173.14044189 12.30168152 173.14044189 C12.30168152 160.14044189 12.30168152 160.14044189 14.30168152 156.14044189 C21.14753859 151.52271755 27.22682872 151.64995372 35.30168152 151.89044189 C36.45797058 151.90848877 37.61425964 151.92653564 38.80558777 151.94512939 C41.63798036 151.9919458 44.46994233 152.06367788 47.30168152 152.14044189 C47.30168152 144.88044189 47.30168152 137.62044189 47.30168152 130.14044189 C45.6972821 130.15615234 44.09288269 130.17186279 42.43986511 130.18804932 C36.47995536 130.24240299 30.52006748 130.27681214 24.5599823 130.30523682 C21.9818198 130.32031095 19.4036829 130.34077357 16.8256073 130.36676025 C13.1170469 130.40320275 9.40882598 130.42018241 5.70011902 130.43341064 C4.54990265 130.4488945 3.39968628 130.46437836 2.21461487 130.48033142 C-7.86339853 130.48244457 -7.86339853 130.48244457 -12.69831848 127.14044189 C-16.39874365 123.13998225 -17.81828056 120.13048036 -17.83876038 114.71995544 C-17.84447052 113.81577377 -17.85018066 112.9115921 -17.85606384 111.98001099 C-17.8571817 110.99034332 -17.85829956 110.00067566 -17.85945129 108.98101807 C-17.8644162 107.93683212 -17.8693811 106.89264618 -17.87449646 105.81681824 C-17.88912494 102.35567572 -17.89592127 98.89457903 -17.90144348 95.43341064 C-17.90719439 93.03068541 -17.91295213 90.62796019 -17.91871643 88.22523499 C-17.92922839 83.18386623 -17.93506978 78.14251343 -17.93855286 73.10113525 C-17.94403781 66.64138053 -17.96806528 60.18183656 -17.99652481 53.72214794 C-18.01514879 48.75760787 -18.02035667 43.79311858 -18.02188873 38.82854652 C-18.02491634 36.44711467 -18.03294848 34.06568373 -18.04607391 31.68428612 C-18.06312887 28.3520441 -18.06125524 25.02031728 -18.05476379 21.68804932 C-18.06397858 20.70445435 -18.07319336 19.72085938 -18.08268738 18.7074585 C-18.05047106 13.42803081 -17.68888309 9.6891531 -14.69831848 5.14044189 C-9.86996029 0.67421057 -6.45748297 0.01563815 0 0 Z M10.30168152 23.14044189 C10.20728174 25.41036076 10.18425925 27.68326157 10.18815613 29.95513916 C10.18803559 30.67884925 10.18791506 31.40255934 10.18779087 32.14820004 C10.18853989 34.50111353 10.19616758 36.85394874 10.20402527 39.20684814 C10.20549472 40.65537477 10.20651541 42.10390193 10.20707703 43.5524292 C10.21232951 48.93594151 10.2262906 54.31944246 10.23918152 59.70294189 C10.25980652 71.72731689 10.28043152 83.75169189 10.30168152 96.14044189 C54.52168152 96.14044189 98.74168152 96.14044189 144.30168152 96.14044189 C144.32230652 84.11606689 144.34293152 72.09169189 144.36418152 59.70294189 C144.37328552 55.90093262 144.38238953 52.09892334 144.39176941 48.18170166 C144.39511306 44.78478286 144.39511306 44.78478286 144.39712524 41.38786316 C144.39866463 39.87040413 144.40218944 38.35294635 144.40725708 36.835495 C144.4145359 34.5420213 144.41558889 32.2486226 144.41520691 29.95513916 C144.41742752 28.66052261 144.41964813 27.36590607 144.42193604 26.03205872 C144.63296264 23.24601807 144.63296264 23.24601807 143.30168152 22.14044189 C141.5957406 22.04204483 139.88570181 22.01412161 138.17692566 22.01345825 C136.5110289 22.00922852 136.5110289 22.00922852 134.81147766 22.00491333 C132.96778091 22.00794968 132.96778091 22.00794968 131.08683777 22.01104736 C129.80082672 22.00929504 128.51481567 22.00754272 127.18983459 22.0057373 C123.65273988 22.00116336 120.1156742 22.00295237 116.57857895 22.00611639 C112.88479786 22.00864019 109.19101934 22.0063024 105.49723816 22.00473022 C99.29305065 22.00290859 93.08887503 22.00531468 86.88468933 22.0100708 C79.70184788 22.01551341 72.5190348 22.01375075 65.33619404 22.0082444 C59.17994347 22.00371309 53.02370146 22.0030628 46.86744976 22.00568306 C43.18586448 22.00724575 39.50429256 22.00743985 35.82270813 22.00414658 C31.72062995 22.00073377 27.61860105 22.00545787 23.51652527 22.01104736 C22.2873941 22.00902313 21.05826294 22.0069989 19.79188538 22.00491333 C18.68128754 22.00773315 17.5706897 22.01055298 16.42643738 22.01345825 C14.96964821 22.01402379 14.96964821 22.01402379 13.48342896 22.01460075 C11.32391911 21.89646567 11.32391911 21.89646567 10.30168152 23.14044189 Z " fill="#000000" transform="translate(178.6983184814453,176.85955810546875)"/>
<path d="M0 0 C11.32734953 8.80727406 18.49556368 22.69083815 21.015625 36.63671875 C22.6554699 54.26821539 20.33567075 71.1432147 8.71728516 85.20849609 C-1.54461125 96.90112048 -14.51663516 105.46513039 -30.36425781 106.84375 C-48.61128106 107.82817515 -64.1703652 104.55886058 -78.359375 92.26171875 C-89.66386225 81.39624071 -97.60782323 67.99228126 -98.28515625 52.0234375 C-98.3045724 50.45714672 -98.30814501 48.89058933 -98.296875 47.32421875 C-98.29123535 46.49462646 -98.2855957 45.66503418 -98.27978516 44.81030273 C-97.93091882 27.0578418 -90.51799319 13.70413655 -77.984375 1.63671875 C-55.4234219 -18.53203091 -23.77810263 -16.33574374 0 0 Z M-43.984375 13.63671875 C-47.27737996 18.57622619 -46.31715556 24.47564298 -46.30004883 30.26025391 C-46.29689586 32.4969181 -46.32032755 34.73224999 -46.34570312 36.96875 C-46.34797702 38.39713376 -46.3486792 39.82552105 -46.34765625 41.25390625 C-46.35063721 42.54925293 -46.35361816 43.84459961 -46.35668945 45.17919922 C-45.962117 48.8434189 -45.20191065 50.72888516 -42.984375 53.63671875 C-38.7030143 55.7773991 -33.04301036 54.904786 -28.29077148 54.93188477 C-26.18992448 54.94907109 -24.09066299 54.99295474 -21.99023438 55.03710938 C-20.64844905 55.04723927 -19.30665036 55.05575445 -17.96484375 55.0625 C-16.74692139 55.07708252 -15.52899902 55.09166504 -14.27416992 55.10668945 C-10.36221587 54.54783887 -8.72057224 53.44344145 -5.984375 50.63671875 C-5.15087549 47.68012002 -5.15087549 47.68012002 -5.984375 44.63671875 C-8.05783666 41.71249654 -9.6384907 39.87267988 -13.26953125 39.23608398 C-15.96164761 39.14456223 -18.60617422 39.20061765 -21.296875 39.32421875 C-22.69389648 39.35805664 -22.69389648 39.35805664 -24.11914062 39.39257812 C-26.4092146 39.45129797 -28.69595375 39.53335017 -30.984375 39.63671875 C-30.96342773 38.93063477 -30.94248047 38.22455078 -30.92089844 37.49707031 C-30.83768202 34.29376499 -30.78569715 31.09068712 -30.734375 27.88671875 C-30.70085937 26.77554688 -30.66734375 25.664375 -30.6328125 24.51953125 C-30.61992187 23.44960937 -30.60703125 22.3796875 -30.59375 21.27734375 C-30.5623291 19.80056152 -30.5623291 19.80056152 -30.53027344 18.29394531 C-31.10938344 14.90521773 -32.35727861 13.77437007 -34.984375 11.63671875 C-38.78002961 9.80011168 -40.75002785 11.25351559 -43.984375 13.63671875 Z " fill="#000000" transform="translate(474.984375,216.36328125)"/>
<path d="M0 0 C0.69230713 -0.00942627 1.38461426 -0.01885254 2.09790039 -0.02856445 C7.00400772 0.00400772 7.00400772 0.00400772 9.25 2.25 C9.50447559 4.12753963 9.50447559 4.12753963 9.51069641 6.45652771 C9.51778122 7.33842773 9.52486603 8.22032776 9.53216553 9.12895203 C9.52968811 10.09887589 9.52721069 11.06879974 9.5246582 12.06811523 C9.52976913 13.08771332 9.53488007 14.1073114 9.54014587 15.1578064 C9.55409084 18.54146124 9.55308141 21.92491352 9.55078125 25.30859375 C9.55466549 27.65267514 9.55899959 29.99675581 9.56376648 32.34083557 C9.57123926 37.25955484 9.57092975 42.17820235 9.56567383 47.09692383 C9.55987794 53.41017321 9.5768082 59.72312935 9.6000185 66.03633022 C9.61472755 70.87894925 9.61563139 75.72149719 9.61250877 80.5641346 C9.61302341 82.89221846 9.61828774 85.22030615 9.62832069 87.54836845 C9.64061284 90.79993799 9.63393667 94.05093042 9.62231445 97.30249023 C9.62995819 98.27038986 9.63760193 99.23828949 9.64547729 100.23551941 C9.63846298 101.12023926 9.63144867 102.00495911 9.6242218 102.91648865 C9.62438954 103.68543174 9.62455729 104.45437483 9.62473011 105.24661922 C9.14394225 107.81700557 8.32245043 108.69200881 6.25 110.25 C3.75863484 110.66154521 1.46803054 110.89953278 -1.0390625 111.0234375 C-2.54112572 111.12359377 -4.04315911 111.22419814 -5.54516602 111.32519531 C-6.72745285 111.3975238 -6.72745285 111.3975238 -7.93362427 111.47131348 C-30.92069679 112.91836778 -52.35924873 116.42263362 -73.75 125.25 C-75.41633378 125.91749827 -77.0829673 126.58424915 -78.75 127.25 C-79.00559673 115.44518258 -79.20068401 103.64103001 -79.31993389 91.83400249 C-79.37718871 86.35049453 -79.45475641 80.86888816 -79.57983398 75.38647461 C-79.69992866 70.08892648 -79.76524266 64.79319925 -79.79364967 59.4943943 C-79.81387467 57.47965655 -79.85337303 55.46501139 -79.91303062 53.45105553 C-80.40849953 36.02121621 -80.40849953 36.02121621 -74.91724873 30.0283556 C-72.65821242 27.90692728 -70.26584209 26.05576832 -67.75 24.25 C-66.77086136 23.43776222 -66.77086136 23.43776222 -65.77194214 22.6091156 C-47.16202371 7.25704901 -23.8640688 0.24877911 0 0 Z " fill="#000000" transform="translate(342.75,371.75)"/>
<path d="M0 0 C25.76217032 0.44689479 52.40766893 9.30377302 72 26.3125 C72.66008057 26.72447632 73.32016113 27.13645264 74.00024414 27.56091309 C77.23598306 29.97110995 79.5504475 32.27931509 80.44761658 36.33692932 C81.15752542 42.68140419 80.91589877 49.0669241 80.78125 55.4375 C80.76631582 57.51112683 80.75493436 59.58478203 80.74694824 61.65844727 C80.71650702 67.09746211 80.6380126 72.53474832 80.54931641 77.9730835 C80.4672521 83.5299949 80.43089281 89.08718761 80.390625 94.64453125 C80.30501101 105.5346107 80.16860081 116.42341121 80 127.3125 C79.09382337 126.9631606 79.09382337 126.9631606 78.16934013 126.60676384 C75.40794084 125.54381457 72.64515108 124.48452586 69.88232422 123.42529297 C68.45680489 122.87563118 68.45680489 122.87563118 67.00248718 122.31486511 C60.78740617 119.93586656 54.64376077 117.82465948 48.125 116.4375 C47.25174072 116.24244873 46.37848145 116.04739746 45.47875977 115.84643555 C35.67000009 113.71472405 25.96611588 112.48387681 15.95703125 111.859375 C14.69189697 111.77840576 13.4267627 111.69743652 12.12329102 111.61401367 C9.56864744 111.45637131 7.01307891 111.31298278 4.45678711 111.18481445 C3.27995361 111.11480225 2.10312012 111.04479004 0.890625 110.97265625 C-0.17124023 110.91730713 -1.23310547 110.86195801 -2.32714844 110.80493164 C-5.38528277 110.2415176 -6.12295282 109.72059772 -8 107.3125 C-8.37473011 105.30911922 -8.37473011 105.30911922 -8.3742218 102.97898865 C-8.38123611 102.0942688 -8.38825043 101.20954895 -8.39547729 100.29801941 C-8.38783356 99.33011978 -8.38018982 98.36222015 -8.37231445 97.36499023 C-8.37596512 96.34363983 -8.37961578 95.32228943 -8.38337708 94.26998901 C-8.39149714 90.88685591 -8.377861 87.50419953 -8.36328125 84.12109375 C-8.36276286 81.77604676 -8.36327974 79.43099932 -8.36479187 77.08595276 C-8.36470208 72.16897096 -8.35425866 67.25215291 -8.33618164 62.33520508 C-8.3134819 56.02080894 -8.31295197 49.70665194 -8.31969929 43.39222622 C-8.3230345 38.54964559 -8.31641784 33.70711987 -8.30657005 28.86454964 C-8.30271097 26.53564809 -8.30157275 24.20674044 -8.3031559 21.87783623 C-8.30352518 18.62864333 -8.29094517 15.37976157 -8.2746582 12.13061523 C-8.27713562 11.16069138 -8.27961304 10.19076752 -8.28216553 9.19145203 C-8.27508072 8.309552 -8.26799591 7.42765198 -8.26069641 6.51902771 C-8.25864354 5.75046165 -8.25659067 4.98189558 -8.25447559 4.19003963 C-7.61001499 -0.56483805 -3.90073595 0.01354422 0 0 Z " fill="#000000" transform="translate(168,371.6875)"/>
<path d="M0 0 C13.47168444 10.08677886 24.64370285 24.21851423 28 41 C28.25 44.8125 28.25 44.8125 28 48 C25.41989291 50.58010709 24.42519819 50.25113231 20.83764648 50.25396729 C19.19709793 50.26242676 19.19709793 50.26242676 17.52340698 50.27105713 C16.31814362 50.26700867 15.11288025 50.26296021 13.87109375 50.25878906 C12.60605011 50.2622937 11.34100647 50.26579834 10.03762817 50.26940918 C6.56247777 50.27854577 3.08744579 50.27498376 -0.38770676 50.26865101 C-4.01962358 50.26359756 -7.65153006 50.26828063 -11.28344727 50.27142334 C-17.38331936 50.2750649 -23.48314306 50.27025892 -29.58300781 50.26074219 C-36.64147983 50.24985725 -43.69983633 50.25338269 -50.75830555 50.264395 C-56.81184028 50.27346248 -62.86534018 50.27475581 -68.91887951 50.26951766 C-72.53733909 50.26639498 -76.15574432 50.26599675 -79.77420044 50.27259064 C-83.80656815 50.27942513 -87.83873577 50.26996019 -91.87109375 50.25878906 C-93.6789888 50.26486176 -93.6789888 50.26486176 -95.52340698 50.27105713 C-96.61710602 50.26541748 -97.71080505 50.25977783 -98.83764648 50.25396729 C-99.79186996 50.25321323 -100.74609344 50.25245918 -101.72923279 50.25168228 C-104 50 -104 50 -106 48 C-107.35218373 37.6332581 -101.66228008 26.37643086 -96 18 C-71.95710214 -11.7176191 -33.25005424 -20.90224597 0 0 Z " fill="#000000" transform="translate(295,103)"/>
<path d="M0 0 C1.17175781 0.5259375 1.17175781 0.5259375 2.3671875 1.0625 C15.9545324 7.83266493 24.48692256 19.45921921 29.2734375 33.58984375 C30.874266 38.90011893 31.21552915 43.59242914 31.25 49.125 C31.270625 49.929375 31.29125 50.73375 31.3125 51.5625 C31.38240388 62.50245709 27.2737253 70.84290802 22.0625 80.25 C14.8514531 93.70604108 11.70932879 105.90092903 10 121 C4.72 121 -0.56 121 -6 121 C-6 104.17 -6 87.34 -6 70 C-1.38 69.01 3.24 68.02 8 67 C13.801574 63.27660176 16.51122464 59.73242661 18 53 C18.97061741 46.44833246 16.59265347 41.37026847 13 36 C8.2561597 31.46963251 2.95035397 30.62916706 -3.3671875 30.73046875 C-8.36584765 31.24220102 -12.07439882 32.9617046 -15.53515625 36.625 C-19.50502062 42.18049533 -20.25633346 48.34029967 -21 55 C-21.99 55 -22.98 55 -24 55 C-24.14695312 53.80503906 -24.14695312 53.80503906 -24.296875 52.5859375 C-25.36886602 44.98958732 -26.64992335 40.09237844 -32.4375 34.75 C-37.81620573 31.07673755 -42.56898376 30.15183592 -49 31 C-55.21816072 32.85766161 -58.94117522 36.34183056 -62 42 C-63.84152373 47.52457118 -63.8169855 52.91005661 -61.375 58.25 C-58.49218974 63.32779211 -55.13520802 66.22356072 -49.5625 68.25 C-46.0702225 68.98521631 -42.53296111 69.49529127 -39 70 C-39 86.83 -39 103.66 -39 121 C-44.28 121 -49.56 121 -55 121 C-55.23074219 119.56269531 -55.46148437 118.12539063 -55.69921875 116.64453125 C-58.20093172 101.6290279 -61.81796424 88.96114334 -69.78979492 75.90478516 C-74.76100445 67.56869831 -76.55144548 59.33966934 -76.4375 49.6875 C-76.42505249 48.31392334 -76.42505249 48.31392334 -76.41235352 46.91259766 C-76.05976982 32.68628455 -70.98373061 21.14195419 -61.25 10.75 C-45.09352594 -4.38312734 -20.43189789 -9.73557517 0 0 Z " fill="#000000" transform="translate(92,179)"/>
<path d="M0 0 C7.35855652 6.03817037 11.69790026 12.58067584 14.5 21.6875 C15.68500361 33.833787 13.58322 43.64739384 5.75 53.25 C-1.27903795 60.81843655 -9.89716572 63.93756553 -20.0625 64.4375 C-29.88338553 64.23250998 -37.96710484 61.03888397 -45.296875 54.39453125 C-52.6717185 46.49966673 -55.60753287 37.60356942 -55.46484375 26.93359375 C-54.68952779 17.2491926 -50.52721662 9.04756182 -43.4375 2.5 C-31.16364762 -7.64329687 -13.34641176 -9.45370833 0 0 Z " fill="#000000" transform="translate(276.25,18.75)"/>
<path d="M0 0 C40.80224134 4.58557299 83.39048505 34.56004419 108.61328125 65.9921875 C109.40089844 66.98476562 110.18851562 67.97734375 111 69 C111.81855469 70.01320313 112.63710938 71.02640625 113.48046875 72.0703125 C121.78402062 82.47353897 128.41669932 93.64507941 134.4375 105.5 C134.76766113 106.14622314 135.09782227 106.79244629 135.43798828 107.45825195 C135.74591309 108.08046631 136.05383789 108.70268066 136.37109375 109.34375 C136.7721936 110.15102539 136.7721936 110.15102539 137.18139648 110.97460938 C138.36242866 113.89672179 139.13414551 116.96950929 140 120 C134.06 120.33 128.12 120.66 122 121 C121.01773438 119.02193359 121.01773438 119.02193359 120.015625 117.00390625 C97.41836566 72.24523975 60.68076139 37.51903239 12.5625 21.625 C9.71836847 20.71431129 6.86419892 19.84528308 4 19 C3.29568848 18.79117188 2.59137695 18.58234375 1.86572266 18.3671875 C-2.07905 17.20571705 -6.03316848 16.08418225 -10 15 C-9.08333333 13.625 -8.16666667 12.25 -7.25 10.875 C-6.70601563 10.05902344 -6.16203125 9.24304688 -5.6015625 8.40234375 C-3.734375 5.6015625 -1.8671875 2.80078125 0 0 Z " fill="#000000" transform="translate(301,69)"/>
<path d="M0 0 C1.8515625 2.3984375 1.8515625 2.3984375 3.625 5.375 C4.51058594 6.84066406 4.51058594 6.84066406 5.4140625 8.3359375 C5.93742188 9.21507813 6.46078125 10.09421875 7 11 C7.99 12.485 7.99 12.485 9 14 C8.37246826 14.17015625 7.74493652 14.3403125 7.09838867 14.515625 C-43.65068408 28.41973383 -80.64064958 54.25135584 -111 97 C-116.46330938 95.23906339 -121.75714676 93.34255145 -127 91 C-125.36016834 86.00195022 -122.46124429 82.051547 -119.4375 77.8125 C-118.9010083 77.05654541 -118.3645166 76.30059082 -117.81176758 75.52172852 C-113.57757699 69.63597036 -108.97803377 64.26971544 -104 59 C-102.89140313 57.6912398 -101.78709026 56.37883641 -100.6875 55.0625 C-85.33858289 37.52592115 -24.64778976 -12.29794984 0 0 Z " fill="#000000" transform="translate(212,70)"/>
<path d="M0 0 C21.45 0 42.9 0 65 0 C65 7.4 65 7.4 62 11 C58.8125 12.3125 58.8125 12.3125 56 13 C56.02320313 13.74765625 56.04640625 14.4953125 56.0703125 15.265625 C56.08835938 16.25046875 56.10640625 17.2353125 56.125 18.25 C56.14820313 19.22453125 56.17140625 20.1990625 56.1953125 21.203125 C55.99625329 24.05365284 55.54098381 25.62093728 54 28 C51.3794668 29.69066658 50.17370278 30 47 30 C47.05800781 30.80824219 47.11601563 31.61648438 47.17578125 32.44921875 C47.22089844 33.51785156 47.26601562 34.58648437 47.3125 35.6875 C47.37050781 36.74324219 47.42851563 37.79898438 47.48828125 38.88671875 C47 42 47 42 45.109375 44.85546875 C40.71438948 47.88668364 37.15693953 47.73789343 31.9375 47.625 C31.03966797 47.64433594 30.14183594 47.66367187 29.21679688 47.68359375 C24.96008998 47.65194537 22.75061874 47.61782562 19.39453125 44.85546875 C17.76654306 41.52196912 17.58780742 39.37738113 17.75 35.6875 C17.78609375 34.61886719 17.8221875 33.55023438 17.859375 32.44921875 C17.90578125 31.64097656 17.9521875 30.83273437 18 30 C17.071875 29.9175 16.14375 29.835 15.1875 29.75 C12 29 12 29 10.3125 27.34375 C8.61433243 24.3113079 8.69991511 22.20260328 8.8125 18.75 C8.83957031 17.67234375 8.86664063 16.5946875 8.89453125 15.484375 C8.92933594 14.66453125 8.96414062 13.8446875 9 13 C8.071875 12.7525 7.14375 12.505 6.1875 12.25 C2.72766821 10.89320322 1.60810448 10.30554809 0 7 C0 4.69 0 2.38 0 0 Z " fill="#000000" transform="translate(37,315)"/>
<path d="M0 0 C5.94 0.33 11.88 0.66 18 1 C15.93030158 7.74694451 13.29787825 13.82955662 10 20.0625 C9.51724609 20.97644531 9.03449219 21.89039063 8.53710938 22.83203125 C1.2106932 36.43959021 -7.73064826 48.49167969 -18 60 C-18.46970215 60.53141602 -18.9394043 61.06283203 -19.42333984 61.61035156 C-27.51916402 70.74679139 -36.18372171 78.53302334 -45.875 85.9375 C-46.63296875 86.52595703 -47.3909375 87.11441406 -48.171875 87.72070312 C-48.89632813 88.27564453 -49.62078125 88.83058594 -50.3671875 89.40234375 C-51.34341064 90.15245728 -51.34341064 90.15245728 -52.33935547 90.91772461 C-54 92 -54 92 -56 92 C-58.21146703 74.70681385 -58.21146703 74.70681385 -54.81933594 69.02099609 C-51.64650836 65.53211315 -47.78014026 62.95395578 -43.88525391 60.33300781 C-40.95909654 58.26400766 -38.45267303 55.85571381 -35.9375 53.3125 C-35.45667969 52.82894043 -34.97585938 52.34538086 -34.48046875 51.84716797 C-19.82119082 36.68592673 -9.65845243 18.56233826 0 0 Z " fill="#000000" transform="translate(423,337)"/>
<path d="M0 0 C3.24690077 3.02898796 5.61668523 6.23906234 8.0625 9.9375 C14.53603927 19.4832274 21.97018511 28.10463625 30.0625 36.3125 C30.55758057 36.82055176 31.05266113 37.32860352 31.56274414 37.85205078 C34.72174711 41.00224275 37.93799628 43.16857818 41.75 45.4375 C44.54301567 47.50326079 45.81174295 48.93226368 46.42089844 52.38720703 C46.86131427 58.60890229 46.54687613 64.79421799 46 71 C40.98139685 69.4365121 37.47660115 66.42664493 33.5 63.125 C32.7994751 62.54854736 32.0989502 61.97209473 31.37719727 61.37817383 C21.98119498 53.57922576 12.66013565 45.55457781 5 36 C4.36167236 35.20625977 4.36167236 35.20625977 3.71044922 34.39648438 C-10 17.29929727 -10 17.29929727 -10 14 C-9.278125 13.319375 -8.55625 12.63875 -7.8125 11.9375 C-4.24889 8.55716137 -2.21670778 4.32965477 0 0 Z " fill="#000000" transform="translate(99,358)"/>
<path d="M0 0 C0.99 0 1.98 0 3 0 C3 16.83 3 33.66 3 51 C2.01 51 1.02 51 0 51 C0 34.17 0 17.34 0 0 Z " fill="#000000" transform="translate(68,249)"/>
<path d="M0 0 C3.5625 0.25 3.5625 0.25 7 1 C8.4783226 3.95664519 8.06032783 6.74229737 8 10 C1.59181818 10.36272727 1.59181818 10.36272727 -0.9375 8.8125 C-2.36405327 6.37896796 -2.35571424 4.77457104 -2 2 C-1.34 1.34 -0.68 0.68 0 0 Z " fill="#000000" transform="translate(45,224)"/>
<path d="M0 0 C3 -0.375 3 -0.375 6 0 C8 3 8 3 7.8125 5.5625 C7 8 7 8 4 10 C0.8125 10.125 0.8125 10.125 -2 10 C-2.25 3.375 -2.25 3.375 0 0 Z " fill="#000000" transform="translate(88,224)"/>
</svg>
