<?xml version="1.0" encoding="UTF-8"?>
<svg version="1.1" xmlns="http://www.w3.org/2000/svg" width="512" height="512">
<path d="M0 0 C1.64415059 1.4833892 3.27660387 2.97997685 4.890625 4.49609375 C7.08898424 6.56747748 7.08898424 6.56747748 9.6484375 8.5390625 C13.27209499 11.47416672 16.07935645 14.94637285 19.07421875 18.50390625 C19.74324219 19.261875 20.41226562 20.01984375 21.1015625 20.80078125 C49.751358 54.16510006 61.88571484 97.98169081 58.87207031 141.41748047 C55.10138689 182.23334986 36.716563 216.861562 8.07421875 245.50390625 C7.58179688 246.04273438 7.089375 246.5815625 6.58203125 247.13671875 C-18.38764294 274.08139541 -59.67809353 288.94494973 -95.61767578 290.63012695 C-139.42756024 291.85029615 -182.35712461 278.93234975 -214.7421875 248.51171875 C-216.94054674 246.44033502 -216.94054674 246.44033502 -219.5 244.46875 C-223.12365749 241.53364578 -225.93091895 238.06143965 -228.92578125 234.50390625 C-229.59480469 233.7459375 -230.26382813 232.98796875 -230.953125 232.20703125 C-259.6029205 198.84271244 -271.73727734 155.02612169 -268.72363281 111.59033203 C-265.31897353 74.73650129 -249.70234704 38.36792262 -222.92578125 12.50390625 C-222.12140625 11.69953125 -221.31703125 10.89515625 -220.48828125 10.06640625 C-219.64265625 9.22078125 -218.79703125 8.37515625 -217.92578125 7.50390625 C-217.39984375 6.9315625 -216.87390625 6.35921875 -216.33203125 5.76953125 C-161.23872846 -52.59201832 -58.82957632 -50.18971865 0 0 Z M-215.92578125 29.50390625 C-242.8076757 61.33772863 -254.70987211 100.33629334 -251.64453125 141.77734375 C-248.08842482 176.03906146 -232.036072 207.26186527 -207.92578125 231.50390625 C-207.44383301 231.98988281 -206.96188477 232.47585938 -206.46533203 232.9765625 C-179.92681202 259.36230404 -142.49305291 273.7345258 -105.30078125 273.69140625 C-73.11949217 273.59155655 -41.30274416 263.68835213 -15.92578125 243.50390625 C-15.02601563 242.80652344 -14.12625 242.10914063 -13.19921875 241.390625 C17.62275293 216.95010379 36.83547968 181.59784623 41.60546875 142.6015625 C45.55521143 104.00928511 34.5565003 65.40837957 10.3515625 35.046875 C-14.26826847 4.92220437 -48.78708468 -15.31671346 -87.66015625 -20.02734375 C-136.43068195 -24.90809386 -183.02204063 -6.77595108 -215.92578125 29.50390625 Z " fill="#000000" transform="translate(360.92578125,129.49609375)"/>
<path d="M0 0 C10.43454652 8.49466018 17.73956095 21.02204741 19.68359375 34.375 C20.7789505 51.31274313 18.3196826 66.89657597 6.78930664 80.12890625 C4.82169615 82.30025815 2.84773076 84.39769496 0.68359375 86.375 C0.02359375 86.375 -0.63640625 86.375 -1.31640625 86.375 C-1.31640625 87.035 -1.31640625 87.695 -1.31640625 88.375 C-0.09953125 88.705 1.11734375 89.035 2.37109375 89.375 C23.24560766 96.43117372 40.06504153 114.51179601 50.03491211 133.62133789 C56.74203583 147.2556931 61.6239626 164.12924476 59.68359375 179.375 C57.87555971 182.44865786 56.82319911 183.80519732 53.68359375 185.375 C51.36390025 185.47836972 49.04114505 185.51456312 46.71916199 185.52217102 C45.99410865 185.52584771 45.26905531 185.5295244 44.52203065 185.5333125 C42.08002834 185.54437069 39.63806855 185.54819677 37.19604492 185.55200195 C35.45018884 185.55826496 33.7043341 185.56491161 31.95848083 185.57191467 C27.20635363 185.58933869 22.4542365 185.59988009 17.70208526 185.6081202 C14.7347666 185.61326702 11.7674511 185.61934287 8.80013466 185.62563133 C-0.47913952 185.64468668 -9.75840572 185.65891751 -19.03769571 185.6672433 C-29.75806488 185.67702026 -40.47822782 185.70335031 -51.1985243 185.74374419 C-59.47883082 185.77387636 -67.75907813 185.78870939 -76.03943843 185.79202431 C-80.98772266 185.79437798 -85.93578667 185.80337943 -90.88401222 185.82848549 C-95.53878172 185.85172078 -100.19318527 185.85601782 -104.84799767 185.84572411 C-106.55683482 185.84522754 -108.26568971 185.85158355 -109.97447205 185.86528015 C-112.30709681 185.8829316 -114.63839864 185.87592739 -116.97102356 185.86274719 C-118.27645017 185.86513555 -119.58187677 185.8675239 -120.92686176 185.86998463 C-124.87774816 185.29302568 -126.51585183 184.16370762 -129.31640625 181.375 C-133.87219619 172.26342012 -128.92413303 156.69854146 -126.31640625 147.375 C-118.24830328 123.20680152 -101.31821985 103.05186026 -78.56640625 91.6875 C-71.8148189 88.375 -71.8148189 88.375 -69.31640625 88.375 C-69.31640625 87.715 -69.31640625 87.055 -69.31640625 86.375 C-70.18845703 85.99601562 -70.18845703 85.99601562 -71.078125 85.609375 C-80.55731101 80.38176108 -85.44772916 68.76981205 -89.1953125 59.109375 C-92.61304774 46.9680498 -90.98810902 32.83450783 -86.31640625 21.375 C-86.03925781 20.653125 -85.76210937 19.93125 -85.4765625 19.1875 C-79.61008181 5.77840128 -68.08887059 -3.06169337 -54.94921875 -8.625 C-36.08272993 -15.79090673 -16.18431121 -11.35358088 0 0 Z M-64.62890625 18.6875 C-72.6798227 28.18180784 -74.23463114 38.20528701 -73.31640625 50.375 C-70.90281848 61.25683285 -64.40048914 70.03153873 -55.31640625 76.375 C-46.36048923 81.66834797 -37.44139494 82.62037361 -27.31640625 81.375 C-16.02128091 78.43464054 -7.27170872 71.34748875 -1.31640625 61.375 C3.24031886 52.45966826 4.21299256 43.09404422 1.98828125 33.3203125 C-1.36798975 23.13868367 -8.1821052 14.31198888 -17.65234375 9.0859375 C-34.5644058 1.27604838 -52.02301148 5.33597005 -64.62890625 18.6875 Z M-69.31640625 106.375 C-70.29996094 106.86742187 -71.28351563 107.35984375 -72.296875 107.8671875 C-91.29697314 118.14149671 -104.55748956 135.26376131 -110.75390625 155.875 C-112.02947798 160.44357489 -112.31640625 163.48203409 -112.31640625 168.375 C-61.49640625 168.375 -10.67640625 168.375 41.68359375 168.375 C40.83440306 158.4681749 40.83440306 158.4681749 38.05859375 149.375 C37.79280518 148.69421387 37.5270166 148.01342773 37.25317383 147.31201172 C32.99587879 136.81060139 26.59374993 128.42344563 18.68359375 120.375 C18.07 119.74851562 17.45640625 119.12203125 16.82421875 118.4765625 C2.91332583 105.33849696 -16.41584816 98.71200733 -35.31640625 98 C-47.16071398 98.46487897 -58.73945377 101.0206921 -69.31640625 106.375 Z " fill="#000000" transform="translate(291.31640625,157.625)"/>
<path d="M0 0 C6.84274706 1.96448196 11.28322947 11.77825247 14.54223633 17.60424805 C15.01250244 18.43311523 15.48276855 19.26198242 15.96728516 20.1159668 C29.82293488 44.75661843 40.02831806 70.26734484 45.91723633 97.97924805 C46.11212646 98.892146 46.3070166 99.80504395 46.5078125 100.74560547 C49.72908718 116.77815503 50.51292266 132.60348683 50.47973633 148.91674805 C50.4791925 149.92626526 50.47864868 150.93578247 50.47808838 151.97589111 C50.43731356 168.48904208 49.51762422 184.39692654 46.10473633 200.60424805 C45.89042969 201.63549805 45.67612305 202.66674805 45.45532227 203.72924805 C36.53007853 245.30243574 17.16326164 286.87910775 -12.32104492 317.8894043 C-13.97378235 319.53177302 -13.97378235 319.53177302 -14.89526367 321.60424805 C-14.27071289 321.54366211 -13.64616211 321.48307617 -13.00268555 321.4206543 C-10.13390615 321.14460595 -7.26460507 320.8743896 -4.39526367 320.60424805 C-2.92186523 320.46116211 -2.92186523 320.46116211 -1.41870117 320.31518555 C13.65277126 318.90851479 13.65277126 318.90851479 18.10473633 321.04174805 C20.63453652 324.28305455 20.7001121 326.3741929 20.76879883 330.38549805 C19.7732966 333.71164666 17.96539631 334.70589106 15.10473633 336.60424805 C11.79003906 337.31787109 11.79003906 337.31787109 8.03833008 337.6159668 C7.36359146 337.67452347 6.68885284 337.73308014 5.9936676 337.79341125 C3.8441795 337.97611209 1.69371044 338.13435849 -0.45776367 338.29174805 C-1.87521531 338.40796449 -3.29253601 338.52578966 -4.7097168 338.64526367 C-7.47674999 338.87582635 -10.24426596 339.09596985 -13.01293945 339.3059082 C-16.50571606 339.574313 -19.99519269 339.8677273 -23.48510742 340.1706543 C-27.62350529 340.51543292 -31.74103893 340.79193468 -35.89526367 340.85424805 C-36.94713867 340.8800293 -37.99901367 340.90581055 -39.08276367 340.93237305 C-42.29654832 340.5574315 -43.61380442 339.86458267 -45.89526367 337.60424805 C-47.15056725 333.83833732 -46.86512725 330.50662806 -46.64526367 326.60424805 C-46.59934082 325.76498779 -46.55341797 324.92572754 -46.50610352 324.06103516 C-46.00372788 315.54954707 -45.38162622 307.04484373 -44.70690918 298.54541016 C-44.58284901 296.96435292 -44.46295008 295.38296345 -44.34729004 293.80126953 C-44.18077508 291.54816952 -43.99718745 289.29706267 -43.80932617 287.0456543 C-43.70571777 285.73282471 -43.60210937 284.41999512 -43.49536133 283.06738281 C-42.8826506 279.53145864 -42.03057275 277.46074762 -39.89526367 274.60424805 C-36.7565518 273.03489211 -34.35670545 273.25223702 -30.89526367 273.60424805 C-27.95776367 275.35424805 -27.95776367 275.35424805 -25.89526367 278.60424805 C-25.3261446 282.63387271 -25.62471501 286.55474554 -25.89526367 290.60424805 C-25.97773765 292.12498776 -26.0583684 293.64582821 -26.13745117 295.16674805 C-26.36062042 299.31476636 -26.6202474 303.4593599 -26.89526367 307.60424805 C-4.31451681 282.7654265 11.95413863 252.47151393 22.10473633 220.60424805 C22.34321289 219.855625 22.58168945 219.10700195 22.82739258 218.33569336 C28.41970697 200.40034222 32.16788874 181.18044017 32.34301758 162.3659668 C32.35276611 161.49563812 32.36251465 160.62530945 32.37255859 159.72860718 C32.54788189 140.00057274 32.2242049 120.98523883 28.10473633 101.60424805 C27.9175 100.70319336 27.73026367 99.80213867 27.53735352 98.8737793 C21.36772871 70.01826295 9.41584979 42.5638823 -6.65844727 17.88110352 C-8.63053993 14.8202595 -10.28864894 12.21186672 -10.89526367 8.60424805 C-9.09667722 2.45907768 -6.78001728 -0.26311436 0 0 Z " fill="#000000" transform="translate(460.895263671875,106.395751953125)"/>
<path d="M0 0 C1.051875 -0.02578125 2.10375 -0.0515625 3.1875 -0.078125 C6.40128465 0.29681654 7.71854075 0.98966537 10 3.25 C11.25530358 7.01591073 10.96986357 10.34761999 10.75 14.25 C10.70407715 15.08926025 10.6581543 15.92852051 10.61083984 16.79321289 C10.10846421 25.30470098 9.48636255 33.80940431 8.81164551 42.30883789 C8.68758534 43.88989513 8.56768641 45.47128459 8.45202637 47.05297852 C8.28551141 49.30607852 8.10192378 51.55718538 7.9140625 53.80859375 C7.7586499 55.77783813 7.7586499 55.77783813 7.60009766 57.78686523 C6.98738693 61.3227894 6.13530908 63.39350043 4 66.25 C0.86128812 67.81935594 -1.53855822 67.60201103 -5 67.25 C-7.9375 65.5 -7.9375 65.5 -10 62.25 C-10.56911907 58.22037534 -10.27054866 54.2995025 -10 50.25 C-9.91752602 48.72926029 -9.83689527 47.20841983 -9.7578125 45.6875 C-9.53464326 41.53948169 -9.27501628 37.39488815 -9 33.25 C-31.58074686 58.08882155 -47.8494023 88.38273412 -58 120.25 C-58.35771484 121.37293457 -58.35771484 121.37293457 -58.72265625 122.51855469 C-64.31498598 140.45395505 -68.06303129 159.67377113 -68.23828125 178.48828125 C-68.2480751 179.35842865 -68.25786896 180.22857605 -68.26795959 181.12509155 C-68.44407879 200.85329056 -68.1417745 219.87443845 -64 239.25 C-63.78569336 240.27528809 -63.57138672 241.30057617 -63.35058594 242.35693359 C-57.42851928 269.9285933 -46.5755254 296.6587794 -30.88378906 320.13720703 C-28.26824066 324.06757489 -26.09089793 327.58261391 -25 332.25 C-25.86465645 335.63002065 -27.01190397 338.35753918 -30 340.25 C-33.30382883 340.85570195 -34.8829403 341.14487562 -38 340.25 C-43.37929984 335.65039559 -47.02044351 329.35853456 -50.4375 323.25 C-50.90776611 322.42113281 -51.37803223 321.59226562 -51.86254883 320.73828125 C-65.71819855 296.09762962 -75.92358173 270.58690321 -81.8125 242.875 C-82.00739014 241.96210205 -82.20228027 241.0492041 -82.40307617 240.10864258 C-85.62435085 224.07609302 -86.40818633 208.25076121 -86.375 191.9375 C-86.37445618 190.92798279 -86.37391235 189.91846558 -86.37335205 188.87835693 C-86.33257723 172.36520597 -85.41288789 156.45732151 -82 140.25 C-81.78569336 139.21875 -81.57138672 138.1875 -81.35058594 137.125 C-72.4253422 95.55181231 -53.05852531 53.9751403 -23.57421875 22.96484375 C-21.92148132 21.32247503 -21.92148132 21.32247503 -21 19.25 C-21.62455078 19.31058594 -22.24910156 19.37117188 -22.89257812 19.43359375 C-25.76135752 19.7096421 -28.6306586 19.97985844 -31.5 20.25 C-32.48226562 20.34539062 -33.46453125 20.44078125 -34.4765625 20.5390625 C-49.54803493 21.94573326 -49.54803493 21.94573326 -54 19.8125 C-56.52980019 16.5711935 -56.59537577 14.48005515 -56.6640625 10.46875 C-55.66856028 7.14260139 -53.86065998 6.14835699 -51 4.25 C-47.68530273 3.53637695 -47.68530273 3.53637695 -43.93359375 3.23828125 C-42.92148582 3.15044624 -42.92148582 3.15044624 -41.88893127 3.06083679 C-39.73944317 2.87813596 -37.58897411 2.71988955 -35.4375 2.5625 C-34.02004836 2.44628355 -32.60272766 2.32845839 -31.18554688 2.20898438 C-28.41851368 1.97842169 -25.65099771 1.7582782 -22.88232422 1.54833984 C-19.38954761 1.27993505 -15.90007099 0.98652074 -12.41015625 0.68359375 C-8.27175838 0.33881512 -4.15422474 0.06231337 0 0 Z " fill="#000000" transform="translate(87,64.75)"/>
<path d="M0 0 C1.25889038 0.06888428 1.25889038 0.06888428 2.54321289 0.13916016 C11.05470098 0.64153579 19.55940431 1.26363745 28.05883789 1.93835449 C29.63989513 2.06241466 31.22128459 2.18231359 32.80297852 2.29797363 C35.05607852 2.46448859 37.30718538 2.64807622 39.55859375 2.8359375 C40.87142334 2.9395459 42.18425293 3.0431543 43.53686523 3.14990234 C47.0727894 3.76261307 49.14350043 4.61469092 52 6.75 C53.56935594 9.88871188 53.35201103 12.28855822 53 15.75 C51.25 18.6875 51.25 18.6875 48 20.75 C43.97037534 21.31911907 40.0495025 21.02054866 36 20.75 C34.47926029 20.66752602 32.95841983 20.58689527 31.4375 20.5078125 C27.28948169 20.28464326 23.14488815 20.02501628 19 19.75 C43.83882155 42.33074686 74.13273412 58.5994023 106 68.75 C106.74862305 68.98847656 107.49724609 69.22695313 108.26855469 69.47265625 C167.78731352 88.03084386 233.16169991 80.61888705 288.28271484 52.20849609 C296.35048032 47.87814291 304.07183821 42.96279591 311.73828125 37.96484375 C315.44493747 35.97387642 317.82635896 36.28626211 322 36.75 C324.5 38.25 324.5 38.25 326 40.75 C326.96171788 45.63873255 326.96171788 45.63873255 326 48.75 C321.37487599 54.11850103 315.11753305 57.76540984 309 61.1875 C308.17113281 61.65776611 307.34226562 62.12803223 306.48828125 62.61254883 C266.35845859 85.17789226 223.5140373 97.2427094 177.375 97.0625 C176.40511139 97.06067719 175.43522278 97.05885437 174.4359436 97.05697632 C160.08443945 97.01158309 146.12057082 96.5062347 132 93.75 C131.10297363 93.58902832 130.20594727 93.42805664 129.28173828 93.26220703 C85.35186648 85.31313758 41.28292439 65.28965218 8.71484375 34.32421875 C7.07247503 32.67148132 7.07247503 32.67148132 5 31.75 C5.06058594 32.37455078 5.12117188 32.99910156 5.18359375 33.64257812 C5.4596421 36.51135752 5.72985844 39.3806586 6 42.25 C6.09539062 43.23226562 6.19078125 44.21453125 6.2890625 45.2265625 C7.69573326 60.29803493 7.69573326 60.29803493 5.5625 64.75 C2.3211935 67.27980019 0.23005515 67.34537577 -3.78125 67.4140625 C-7.10739861 66.41856028 -8.10164301 64.61065998 -10 61.75 C-10.71362305 58.43530273 -10.71362305 58.43530273 -11.01171875 54.68359375 C-11.07027542 54.00885513 -11.12883209 53.33411652 -11.18916321 52.63893127 C-11.37186404 50.48944317 -11.53011045 48.33897411 -11.6875 46.1875 C-11.80371645 44.77004836 -11.92154161 43.35272766 -12.04101562 41.93554688 C-12.27157831 39.16851368 -12.4917218 36.40099771 -12.70166016 33.63232422 C-12.97006495 30.13954761 -13.26347926 26.65007099 -13.56640625 23.16015625 C-13.91118488 19.02175838 -14.18768663 14.90422474 -14.25 10.75 C-14.27578125 9.698125 -14.3015625 8.64625 -14.328125 7.5625 C-13.95318346 4.34871535 -13.26033463 3.03145925 -11 0.75 C-7.23408927 -0.50530358 -3.90238001 -0.21986357 0 0 Z " fill="#000000" transform="translate(79,414.25)"/>
<path d="M0 0 C0.96988861 0.00182281 1.93977722 0.00364563 2.9390564 0.00552368 C17.29056055 0.05091691 31.25442918 0.5562653 45.375 3.3125 C46.72053955 3.55395752 46.72053955 3.55395752 48.09326172 3.80029297 C92.02313352 11.74936242 136.09207561 31.77284782 168.66015625 62.73828125 C170.30252497 64.39101868 170.30252497 64.39101868 172.375 65.3125 C172.31441406 64.68794922 172.25382812 64.06339844 172.19140625 63.41992188 C171.9153579 60.55114248 171.64514156 57.6818414 171.375 54.8125 C171.23191406 53.33910156 171.23191406 53.33910156 171.0859375 51.8359375 C169.67926674 36.76446507 169.67926674 36.76446507 171.8125 32.3125 C175.0538065 29.78269981 177.14494485 29.71712423 181.15625 29.6484375 C184.48239861 30.64393972 185.47664301 32.45184002 187.375 35.3125 C188.08862305 38.62719727 188.08862305 38.62719727 188.38671875 42.37890625 C188.44527542 43.05364487 188.50383209 43.72838348 188.56416321 44.42356873 C188.74686404 46.57305683 188.90511045 48.72352589 189.0625 50.875 C189.17871645 52.29245164 189.29654161 53.70977234 189.41601562 55.12695312 C189.64657831 57.89398632 189.8667218 60.66150229 190.07666016 63.43017578 C190.34506495 66.92295239 190.63847926 70.41242901 190.94140625 73.90234375 C191.28618488 78.04074162 191.56268663 82.15827526 191.625 86.3125 C191.65078125 87.364375 191.6765625 88.41625 191.703125 89.5 C191.32818346 92.71378465 190.63533463 94.03104075 188.375 96.3125 C184.60908927 97.56780358 181.27738001 97.28236357 177.375 97.0625 C176.53573975 97.01657715 175.69647949 96.9706543 174.83178711 96.92333984 C166.32029902 96.42096421 157.81559569 95.79886255 149.31616211 95.12414551 C147.73510487 95.00008534 146.15371541 94.88018641 144.57202148 94.76452637 C142.31892148 94.59801141 140.06781462 94.41442378 137.81640625 94.2265625 C136.50357666 94.1229541 135.19074707 94.0193457 133.83813477 93.91259766 C130.3022106 93.29988693 128.23149957 92.44780908 125.375 90.3125 C123.80564406 87.17378812 124.02298897 84.77394178 124.375 81.3125 C126.125 78.375 126.125 78.375 129.375 76.3125 C133.40462466 75.74338093 137.3254975 76.04195134 141.375 76.3125 C142.89573971 76.39497398 144.41658017 76.47560473 145.9375 76.5546875 C150.08551831 76.77785674 154.23011185 77.03748372 158.375 77.3125 C112.83715384 35.91445803 50.21280735 15.02277107 -10.9375 17.5 C-54.71533055 19.81154942 -96.64054156 33.9403159 -133.01879883 58.27197266 C-136.74619298 60.68664873 -140.27952993 60.9050641 -144.625 60.3125 C-147.125 58.8125 -147.125 58.8125 -148.625 56.3125 C-149.58671788 51.42376745 -149.58671788 51.42376745 -148.625 48.3125 C-143.99987599 42.94399897 -137.74253305 39.29709016 -131.625 35.875 C-130.79613281 35.40473389 -129.96726562 34.93446777 -129.11328125 34.44995117 C-88.98345859 11.88460774 -46.1390373 -0.1802094 0 0 Z " fill="#000000" transform="translate(255.625,0.6875)"/>
</svg>
