<?xml version="1.0" encoding="UTF-8"?>
<svg version="1.1" xmlns="http://www.w3.org/2000/svg" width="512" height="512">
<path d="M0 0 C4.73481377 5.3575064 6.10807237 9.80187887 6.31640625 16.85546875 C6.33718735 17.51710526 6.35796844 18.17874176 6.37937927 18.86042786 C6.44464727 20.96934852 6.50365344 23.07839135 6.5625 25.1875 C6.60570689 26.61915315 6.64932188 28.05079404 6.69335938 29.48242188 C6.80030506 32.98815154 6.90163641 36.49401786 7 40 C7.6602417 40.23944336 8.3204834 40.47888672 9.00073242 40.72558594 C18.33916445 44.25752197 26.08730459 49.87940791 31.03515625 58.7890625 C35.45998192 68.92854157 36.47170553 79.16258973 32.6796875 89.65234375 C28.08768128 100.17150154 21.52686029 107.00675343 10.9453125 111.40625 C9 112 9 112 6 112 C6.02618408 112.8971875 6.05236816 113.794375 6.0793457 114.71875 C6.16509673 118.08105845 6.22749941 121.44218794 6.2746582 124.80517578 C6.29964236 126.25425674 6.33364269 127.70321375 6.37719727 129.15185547 C6.83473782 144.77282818 6.83473782 144.77282818 1 151 C-3.75076928 155.82839366 -8.50490685 158.27648201 -15.3125 158.375 C-22.47925725 158.21124345 -27.34288712 156.02731924 -32.3125 150.875 C-34.60287403 147.98283182 -35.40930867 145.65571991 -36.14379883 142.06494141 C-37.26604792 138.15815004 -38.21447443 136.29883575 -41.73706055 134.21240234 C-43.2701351 133.46791773 -44.82159327 132.76044262 -46.38671875 132.0859375 C-47.20372757 131.70055817 -48.02073639 131.31517883 -48.86250305 130.91812134 C-51.45680851 129.70355845 -54.0702779 128.53922671 -56.6875 127.375 C-58.4578739 126.55660892 -60.22677548 125.73502481 -61.99414062 124.91015625 C-66.31326486 122.90275277 -70.6502373 120.94006329 -75 119 C-74.68872484 120.58357459 -74.37592711 122.16684993 -74.0625 123.75 C-73.80146484 125.07257813 -73.80146484 125.07257813 -73.53515625 126.421875 C-73.21001129 127.98826677 -72.8567103 129.54961835 -72.453125 131.09765625 C-70.98358323 137.26719798 -71.93779531 142.28917015 -74.6640625 147.88671875 C-77.89119537 152.99162777 -82.31044677 156.11767775 -88 158 C-95.10518055 158.91337149 -101.13827286 158.26915744 -107 154 C-114.80184691 146.7300972 -116.69203325 135.05292627 -119.25 125.0625 C-119.6521875 123.54172852 -119.6521875 123.54172852 -120.0625 121.99023438 C-121.14482793 117.81277989 -122 114.34422407 -122 110 C-122.86625 109.62875 -122.86625 109.62875 -123.75 109.25 C-126.32939979 107.81700012 -128.06121592 106.21575324 -130 104 C-130 103.34 -130 102.68 -130 102 C-130.6290625 102.03480469 -131.258125 102.06960937 -131.90625 102.10546875 C-138.38361538 102.31032519 -144.46691465 102.12853359 -149.53515625 97.640625 C-155.44334728 90.95730686 -155.33787349 84.53216942 -155.3125 76.0625 C-155.32861328 74.99064453 -155.34472656 73.91878906 -155.36132812 72.81445312 C-155.36547968 66.10968564 -155.01496267 61.26849362 -150.28125 56.13671875 C-149.6934375 55.65847656 -149.105625 55.18023437 -148.5 54.6875 C-147.61828125 53.95080078 -147.61828125 53.95080078 -146.71875 53.19921875 C-143.18809254 50.73578275 -139.97221144 50.89277192 -135.8125 50.9375 C-134.18248047 50.95103516 -134.18248047 50.95103516 -132.51953125 50.96484375 C-131.68808594 50.97644531 -130.85664063 50.98804688 -130 51 C-129.74089844 50.23171875 -129.48179687 49.4634375 -129.21484375 48.671875 C-127.93813268 45.86393167 -127.08391506 44.92009858 -124.5625 43.25 C-123.96566406 42.84265625 -123.36882812 42.4353125 -122.75390625 42.015625 C-118.96506533 39.8216414 -116.02427413 39.98986003 -111.76171875 40.2109375 C-90.95736436 40.79599861 -77.10356568 36.20229672 -59.22509766 25.83496094 C-54.83761364 23.33864528 -50.33440671 21.16860467 -45.75 19.0625 C-45.07074463 18.73950928 -44.39148926 18.41651855 -43.69165039 18.08374023 C-39.25772058 16 -39.25772058 16 -37 16 C-36.95875 14.865625 -36.9175 13.73125 -36.875 12.5625 C-36.16650796 7.09837642 -33.68536254 3.03483658 -30 -1 C-20.47663508 -7.77051725 -8.93373406 -7.62968137 0 0 Z M-16 11 C-18.07223619 12.16341115 -18.07223619 12.16341115 -20 14 C-20.59808697 16.35339985 -20.59808697 16.35339985 -20.50120544 19.0480957 C-20.51103958 20.09123932 -20.52087372 21.13438293 -20.53100586 22.20913696 C-20.52133789 23.35312958 -20.51166992 24.49712219 -20.50170898 25.67578125 C-20.50711197 26.8808432 -20.51251495 28.08590515 -20.51808167 29.32748413 C-20.5284567 32.63354952 -20.52085454 35.93861656 -20.50437045 39.24459457 C-20.49053019 42.70253671 -20.49697885 46.16044838 -20.50050354 49.6184082 C-20.50320649 55.42570374 -20.48972298 61.23279268 -20.46655273 67.04003906 C-20.43994228 73.75604976 -20.43819547 80.47171501 -20.4499411 87.18776035 C-20.46071676 93.6457569 -20.45453354 100.10362837 -20.44038582 106.56161499 C-20.43462412 109.31117709 -20.4347101 112.06064772 -20.43945122 114.81021118 C-20.44510535 118.6483469 -20.42591196 122.48613631 -20.40405273 126.32421875 C-20.40855438 127.46821136 -20.41305603 128.61220398 -20.41769409 129.79086304 C-20.40778946 130.83400665 -20.39788483 131.87715027 -20.38768005 132.9519043 C-20.38525016 133.8596611 -20.38282026 134.76741791 -20.38031673 135.7026825 C-20.16932914 138.06351563 -20.16932914 138.06351563 -18.6398325 139.83113098 C-16.97624699 141.28691041 -16.97624699 141.28691041 -14.375 140.75 C-12.0687593 140.22254355 -12.0687593 140.22254355 -11 139 C-10.89310728 137.38754119 -10.85591982 135.77041761 -10.84609985 134.15444946 C-10.83749939 133.10564102 -10.82889893 132.05683258 -10.82003784 130.97624207 C-10.81364792 129.23544121 -10.81364792 129.23544121 -10.80712891 127.45947266 C-10.79895142 126.24494919 -10.79077393 125.03042572 -10.78234863 123.77909851 C-10.75743758 119.74075658 -10.74081851 115.70245218 -10.7265625 111.6640625 C-10.72120428 110.27577075 -10.71582678 108.88747907 -10.71043015 107.49918747 C-10.68879725 101.72592633 -10.67005908 95.95266803 -10.65880775 90.1793766 C-10.64255925 81.8954014 -10.60936521 73.61189461 -10.55240691 65.32809603 C-10.51375449 59.50896871 -10.49418074 53.68996691 -10.48888719 47.87071455 C-10.48522734 44.39230221 -10.47314072 40.91438905 -10.44078445 37.43611526 C-10.40521765 33.55704112 -10.40906273 29.67855857 -10.41650391 25.79931641 C-10.40009857 24.64283096 -10.38369324 23.48634552 -10.36679077 22.29481506 C-10.37510925 21.24036697 -10.38342773 20.18591888 -10.39199829 19.09951782 C-10.38868814 18.18178904 -10.385378 17.26406025 -10.38196754 16.3185215 C-10.80897033 13.7301053 -10.80897033 13.7301053 -13.53800011 12.18128014 C-14.35046007 11.79145769 -15.16292004 11.40163525 -16 11 Z M-47.03515625 38.90234375 C-47.8290123 39.29950089 -48.62286835 39.69665802 -49.44078064 40.10585022 C-51.12040487 40.94717445 -52.79905522 41.79044528 -54.47680664 42.63549805 C-57.05321931 43.93282679 -59.63277053 45.22373489 -62.21289062 46.51367188 C-63.84133511 47.33035186 -65.46959661 48.14739683 -67.09765625 48.96484375 C-68.26168724 49.54769386 -68.26168724 49.54769386 -69.44923401 50.14231873 C-72.95285437 51.73414789 -72.95285437 51.73414789 -76 54 C-76.0928726 55.41225046 -76.11746772 56.82908934 -76.11352539 58.24438477 C-76.11344986 59.14524307 -76.11337433 60.04610138 -76.11329651 60.97425842 C-76.10813522 61.95341721 -76.10297394 62.93257599 -76.09765625 63.94140625 C-76.0962413 64.93881332 -76.09482635 65.9362204 -76.09336853 66.96385193 C-76.08775114 70.16343124 -76.07519571 73.36294169 -76.0625 76.5625 C-76.05748724 78.72591045 -76.05292395 80.88932199 -76.04882812 83.05273438 C-76.03777607 88.36851325 -76.02102104 93.68425171 -76 99 C-70.60779368 101.70842452 -65.21430197 104.41426531 -59.81958008 107.11767578 C-57.98295727 108.03850801 -56.14669341 108.96005651 -54.31079102 109.88232422 C-51.67817795 111.20466723 -49.04430223 112.52446381 -46.41015625 113.84375 C-45.58411392 114.25935181 -44.75807159 114.67495361 -43.90699768 115.10314941 C-43.14628464 115.4835437 -42.38557159 115.86393799 -41.60180664 116.25585938 C-40.92896133 116.59339233 -40.25611603 116.93092529 -39.56288147 117.27868652 C-38.13555703 118.06984172 -38.13555703 118.06984172 -37 118 C-37 90.61 -37 63.22 -37 35 C-40.62981164 35 -43.84039993 37.29013608 -47.03515625 38.90234375 Z M-115 58 C-115.08858646 60.73894085 -115.11523479 63.4525327 -115.09765625 66.19140625 C-115.0962413 67.01124496 -115.09482635 67.83108368 -115.09336853 68.67576599 C-115.08775289 71.30471382 -115.07519779 73.93357773 -115.0625 76.5625 C-115.05748701 78.34049357 -115.05292376 80.11848846 -115.04882812 81.89648438 C-115.03777839 86.26435545 -115.02050331 90.63216348 -115 95 C-112.59940183 96.20029908 -111.10639351 96.11459743 -108.4296875 96.09765625 C-107.62257324 96.09515869 -106.81545898 96.09266113 -105.98388672 96.09008789 C-104.9579541 96.08098389 -103.93202148 96.07187988 -102.875 96.0625 C-99.61625 96.041875 -96.3575 96.02125 -93 96 C-93 83.13 -93 70.26 -93 57 C-96.444375 56.979375 -99.88875 56.95875 -103.4375 56.9375 C-105.06836548 56.92384399 -105.06836548 56.92384399 -106.73217773 56.90991211 C-107.58239502 56.90741455 -108.4326123 56.90491699 -109.30859375 56.90234375 C-110.18314209 56.89710693 -111.05769043 56.89187012 -111.95874023 56.88647461 C-113.99440206 56.77215191 -113.99440206 56.77215191 -115 58 Z M6 59 C6 70.55 6 82.1 6 94 C12.28773196 90.22736082 15.71005285 87.25943842 17.5 80.1875 C18.55962176 73.54986933 16.6719834 68.61944065 13.125 63.0625 C10.81420739 60.55819653 10.81420739 60.55819653 6 59 Z M-138 68 C-138.02684679 70.64590014 -138.04676357 73.29153096 -138.0625 75.9375 C-138.07087891 76.69224609 -138.07925781 77.44699219 -138.08789062 78.22460938 C-138.09652441 80.14994313 -138.05224333 82.07535581 -138 84 C-137.67 84.33 -137.34 84.66 -137 85 C-135.35 85 -133.7 85 -132 85 C-132 79.39 -132 73.78 -132 68 C-133.98 68 -135.96 68 -138 68 Z M-104 113 C-101.65081835 128.09460553 -101.65081835 128.09460553 -95 141 C-92.39719432 140.67958603 -92.39719432 140.67958603 -90 140 C-88.77406799 136.46407741 -89.24223858 134.15096031 -90.21484375 130.578125 C-90.62573242 129.04091797 -90.62573242 129.04091797 -91.04492188 127.47265625 C-91.33947266 126.40917969 -91.63402344 125.34570312 -91.9375 124.25 C-92.37352539 122.63158203 -92.37352539 122.63158203 -92.81835938 120.98046875 C-93.53702685 118.31786466 -94.26451873 115.65799951 -95 113 C-97.97 113 -100.94 113 -104 113 Z " fill="#000000" transform="translate(470,38)"/>
<path d="M0 0 C0.92876953 -0.01611328 1.85753906 -0.03222656 2.81445312 -0.04882812 C9.33247985 -0.05346729 13.89857555 0.72468767 18.75 5.4375 C21.45005206 9.7203412 23.02282292 14.39934514 23.9453125 19.37890625 C24.29856819 21.49674657 24.29856819 21.49674657 25.5625 24.3125 C28.85924049 26.47532406 28.85924049 26.47532406 32.5625 26.3125 C35.69892143 24.73122086 38.59918121 22.89766246 41.56640625 21.01953125 C45.50029794 18.77818748 49.04345437 17.66353022 53.5625 18.3125 C59.18692471 20.22858443 62.70685671 22.82987805 66.8125 27.0625 C67.328125 27.56265625 67.84375 28.0628125 68.375 28.578125 C72.39802619 32.64262569 75.11460242 36.7538617 75.84765625 42.578125 C75.18747983 48.46180256 72.94231404 52.8590638 69.9375 57.9296875 C68.27133936 60.81706816 67.41921829 62.51209873 68.015625 65.84375 C70.27618433 69.45151136 73.38947995 69.86338225 77.3125 70.8125 C84.01353607 72.46934958 89.06017573 74.32464605 92.91796875 80.47265625 C93.92090451 84.89165201 93.89060756 89.23317294 93.875 93.75 C93.89111328 94.67876953 93.90722656 95.60753906 93.92382812 96.56445312 C93.92872121 103.43924137 92.86299117 107.77606102 88.125 113 C83.13462236 116.90660876 75.78912881 118.3125 69.5625 118.3125 C68.21408644 121.36108718 67.54235586 123.03404044 67.5625 126.3125 C69.09894163 129.50191113 70.95106788 132.36912801 72.85546875 135.3515625 C75.11221072 139.2660028 76.20989757 142.80440228 75.5625 147.3125 C73.59165929 153.2389013 70.64159068 156.82640122 66.1875 161.125 C65.62289062 161.69669922 65.05828125 162.26839844 64.4765625 162.85742188 C60.3575831 166.91442589 57.14519728 169.06884931 51.25 169.625 C45.06436394 169.10079355 40.53696396 167.05893593 35.5 163.5 C32.73313568 161.64890071 32.73313568 161.64890071 29.50390625 161.4375 C27.34693265 162.01685435 27.34693265 162.01685435 24.5625 163.3125 C24.46453125 164.01375 24.3665625 164.715 24.265625 165.4375 C23.0745101 172.99491867 21.68472714 179.41328909 15.9375 184.75 C10.86187791 188.08922506 6.27099774 187.57030143 0.3125 187.625 C-0.72519531 187.65400391 -1.76289063 187.68300781 -2.83203125 187.71289062 C-10.65406312 187.77782448 -13.88103796 186.56412244 -19.625 181.3125 C-22.81704715 176.02911162 -24.4375 169.49034075 -24.4375 163.3125 C-27.48216317 161.99123108 -29.17833722 161.29209836 -32.4375 161.3125 C-35.51487954 162.81944239 -38.15258785 164.59961388 -40.921875 166.61328125 C-45.2997177 169.57036444 -49.20120557 169.67362375 -54.4375 169.3125 C-59.77126638 167.18790782 -63.24432856 163.9622543 -67.1875 159.9375 C-68.05181641 159.09058594 -68.05181641 159.09058594 -68.93359375 158.2265625 C-73.10071257 154.03030299 -75.16729725 150.9803639 -75.77734375 144.95703125 C-75.38461624 140.74536729 -74.00054892 137.64483571 -72 134 C-71.67451172 133.38060547 -71.34902344 132.76121094 -71.01367188 132.12304688 C-70.16613077 130.51359253 -69.30284409 128.91245275 -68.4375 127.3125 C-66.83718656 124.11187313 -68.40576309 121.58978194 -69.4375 118.3125 C-70.23414063 118.20292969 -71.03078125 118.09335937 -71.8515625 117.98046875 C-81.16846248 116.58633408 -86.73539642 114.96961052 -92.4375 107.3125 C-94.41712548 103.35324904 -93.71003472 98.41605114 -93.75 94.0625 C-93.79350586 92.50595703 -93.79350586 92.50595703 -93.83789062 90.91796875 C-93.88952993 84.69741893 -93.61799573 81.02994014 -89.4375 76.3125 C-83.89045951 71.20338376 -76.66026706 70.61853459 -69.4375 69.3125 C-68.11623108 66.26783683 -67.41709836 64.57166278 -67.4375 61.3125 C-68.94444239 58.23512046 -70.72461388 55.59741215 -72.73828125 52.828125 C-75.69536444 48.4502823 -75.79862375 44.54879443 -75.4375 39.3125 C-73.38031587 34.25988898 -70.50268704 30.88772821 -66.6875 27.125 C-66.18734375 26.60486328 -65.6871875 26.08472656 -65.171875 25.54882812 C-61.09875206 21.4809005 -57.04703414 18.83085692 -51.20703125 17.9921875 C-44.88891555 18.62273797 -40.59283032 21.40871258 -35.4296875 25.01171875 C-32.41142729 26.60457342 -32.41142729 26.60457342 -28.734375 26.00390625 C-25.12675439 24.58189023 -25.12675439 24.58189023 -23.8359375 20.828125 C-23.46511436 19.41369961 -23.12482074 17.99098337 -22.8125 16.5625 C-21.23013992 9.81274529 -19.46414083 4.83916251 -13.27734375 0.95703125 C-8.85834799 -0.04590451 -4.51682706 -0.01560756 0 0 Z M-5.4375 17.3125 C-6.2739596 20.26998214 -7.10679695 23.22840104 -7.9375 26.1875 C-8.17597656 27.02925781 -8.41445312 27.87101562 -8.66015625 28.73828125 C-8.88574219 29.54394531 -9.11132812 30.34960938 -9.34375 31.1796875 C-9.55322266 31.92331543 -9.76269531 32.66694336 -9.97851562 33.43310547 C-10.51658223 35.31387827 -10.51658223 35.31387827 -10.4375 37.3125 C-10.98277344 37.48265625 -11.52804688 37.6528125 -12.08984375 37.828125 C-16.21429804 39.15359065 -20.10646073 40.59392938 -24 42.5 C-28.23080829 44.3568952 -31.87943762 45.62791397 -36.4375 44.3125 C-40.96779265 41.91165366 -45.2063237 39.20208382 -49.4375 36.3125 C-50.61575358 37.21422468 -51.77981577 38.13451502 -52.9375 39.0625 C-53.5871875 39.57296875 -54.236875 40.0834375 -54.90625 40.609375 C-56.88322515 42.42654296 -56.88322515 42.42654296 -56.4375 46.3125 C-55.34318203 48.29176389 -54.16603797 50.22612881 -52.9375 52.125 C-48.2729687 59.97506487 -48.2729687 59.97506487 -49.4375 65.3125 C-50.57286518 68.09290158 -51.79896829 70.78559484 -53.1484375 73.46875 C-54.62042416 76.71604177 -55.52547144 79.86895291 -56.4375 83.3125 C-57.62988281 83.58964844 -58.82226562 83.86679687 -60.05078125 84.15234375 C-61.61720477 84.51815523 -63.18361007 84.88404471 -64.75 85.25 C-65.92852539 85.52360352 -65.92852539 85.52360352 -67.13085938 85.80273438 C-68.2668457 86.06860352 -68.2668457 86.06860352 -69.42578125 86.33984375 C-70.12227783 86.50218506 -70.81877441 86.66452637 -71.53637695 86.83178711 C-73.1909406 87.25015565 -74.81844108 87.77281369 -76.4375 88.3125 C-76.4375 91.9425 -76.4375 95.5725 -76.4375 99.3125 C-74.54064453 99.78429687 -74.54064453 99.78429687 -72.60546875 100.265625 C-70.94510815 100.69713114 -69.28496283 101.12946622 -67.625 101.5625 C-66.79162109 101.76746094 -65.95824219 101.97242188 -65.09960938 102.18359375 C-58.9781129 103.80615908 -58.9781129 103.80615908 -56.52734375 106.1015625 C-55.17477366 108.84548605 -53.95020442 111.59672883 -52.8125 114.4375 C-51.22981447 118.42234569 -51.22981447 118.42234569 -49.4375 122.3125 C-48.39226636 128.58390184 -49.85054918 131.36171469 -53.5 136.5625 C-54.25410156 137.55765625 -55.00820312 138.5528125 -55.78515625 139.578125 C-57.65259617 142.09256163 -57.65259617 142.09256163 -57.328125 144.49609375 C-55.8817778 147.44588081 -53.96519647 149.25507264 -51.4375 151.3125 C-47.63752041 151.01639769 -44.77094907 148.74903054 -41.625 146.75 C-33.77012715 142.14901771 -33.77012715 142.14901771 -28.4375 143.3125 C-24.66260203 144.78359994 -21.06637025 146.51722181 -17.4375 148.3125 C-16.2825 148.745625 -15.1275 149.17875 -13.9375 149.625 C-10.28753689 152.0887251 -9.545257 155.25072432 -8.4375 159.3125 C-8.1590625 160.2921875 -7.880625 161.271875 -7.59375 162.28125 C-6.85045077 164.95162132 -6.1412778 167.63144171 -5.4375 170.3125 C-1.8075 170.3125 1.8225 170.3125 5.5625 170.3125 C6.3989596 167.35501786 7.23179695 164.39659896 8.0625 161.4375 C8.42021484 160.17486328 8.42021484 160.17486328 8.78515625 158.88671875 C9.01074219 158.08105469 9.23632812 157.27539062 9.46875 156.4453125 C9.67822266 155.70168457 9.88769531 154.95805664 10.10351562 154.19189453 C10.64158223 152.31112173 10.64158223 152.31112173 10.5625 150.3125 C11.1915625 150.14234375 11.820625 149.9721875 12.46875 149.796875 C17.51378515 148.36846143 21.98051731 146.7941916 26.48046875 144.08203125 C29.68668574 142.8969942 32.16717602 142.97368848 35.5625 143.3125 C37.98667068 144.59029239 40.04334929 145.80704772 42.25 147.375 C46.14588777 150.33549102 46.14588777 150.33549102 50.78515625 151.21875 C53.57865002 149.79437516 55.45571992 147.59484509 57.5625 145.3125 C56.27292278 140.28314883 53.95394095 136.87477145 50.8046875 132.8515625 C48.75111338 128.65400534 48.91486775 124.62285533 50.14941406 120.21875 C50.93212088 118.09838033 51.81219312 116.05618528 52.75 114 C53.04197266 113.29810547 53.33394531 112.59621094 53.63476562 111.87304688 C55.54417057 107.56559358 57.0550993 105.20765711 61.5625 103.3125 C64.17308283 102.50362511 66.72802298 101.77597904 69.375 101.125 C70.06787109 100.94775391 70.76074219 100.77050781 71.47460938 100.58789062 C73.16875944 100.15559026 74.86539268 99.73304106 76.5625 99.3125 C76.5625 95.6825 76.5625 92.0525 76.5625 88.3125 C75.29792969 87.98636719 74.03335938 87.66023438 72.73046875 87.32421875 C71.07017008 86.88334848 69.41002152 86.44191267 67.75 86 C66.91662109 85.78666016 66.08324219 85.57332031 65.22460938 85.35351562 C64.42216797 85.13759766 63.61972656 84.92167969 62.79296875 84.69921875 C62.05457764 84.50545654 61.31618652 84.31169434 60.55541992 84.11206055 C56.96118247 82.67005054 55.75275632 80.74415091 54.2109375 77.24609375 C53.79070312 76.09238281 53.37046875 74.93867188 52.9375 73.75 C51.40552568 69.46406666 51.40552568 69.46406666 49.5625 65.3125 C48.98254997 59.50592713 50.37741253 56.22962664 53.6875 51.625 C55.18553541 49.53793125 56.36586781 47.61255936 57.5625 45.3125 C56.7614546 42.1472581 54.96038778 40.53693392 52.4375 38.5625 C51.48875 37.82 50.54 37.0775 49.5625 36.3125 C48.716875 36.89 47.87125 37.4675 47 38.0625 C45.85479272 38.8134556 44.70892335 39.56340218 43.5625 40.3125 C43.00949219 40.6940625 42.45648438 41.075625 41.88671875 41.46875 C37.53179662 44.27191826 33.74621371 45.1172664 28.5625 44.3125 C25.51024148 43.55165905 22.6600753 42.49913265 19.75 41.3125 C19.00041016 41.04566406 18.25082031 40.77882813 17.47851562 40.50390625 C14.44205315 39.28280874 12.20283044 38.34732098 10.44458008 35.50585938 C9.65105202 33.455318 9.07032758 31.45072137 8.5625 29.3125 C8.24925781 28.1884375 7.93601562 27.064375 7.61328125 25.90625 C7.36964844 24.8853125 7.12601562 23.864375 6.875 22.8125 C6.62363281 21.7709375 6.37226563 20.729375 6.11328125 19.65625 C5.93152344 18.8828125 5.74976563 18.109375 5.5625 17.3125 C1.9325 17.3125 -1.6975 17.3125 -5.4375 17.3125 Z " fill="#000000" transform="translate(240.4375,178.6875)"/>
<path d="M0 0 C0.89425186 -0.00571014 1.78850372 -0.01142029 2.70985413 -0.01730347 C4.17022346 -0.01898026 4.17022346 -0.01898026 5.66009521 -0.02069092 C7.20714394 -0.02813828 7.20714394 -0.02813828 8.78544617 -0.03573608 C12.19907294 -0.05034638 15.61265324 -0.05715811 19.02630615 -0.06268311 C21.40039064 -0.06843581 23.77447511 -0.07419353 26.14855957 -0.07995605 C31.12848121 -0.09046304 36.10838671 -0.09630759 41.08831787 -0.09979248 C47.46153089 -0.10527429 53.83452996 -0.12929714 60.20767593 -0.15776443 C65.11310443 -0.17641228 70.01848162 -0.18159758 74.92394257 -0.18312836 C77.2730196 -0.18615092 79.62209582 -0.19416602 81.971138 -0.20731354 C85.2621526 -0.22441728 88.55264763 -0.22248288 91.84368896 -0.21600342 C93.29191292 -0.22982559 93.29191292 -0.22982559 94.76939392 -0.243927 C101.98348869 -0.19955923 107.70880372 0.76493711 113.38568115 5.57794189 C117.19166576 10.16751157 117.8089995 13.5695054 117.8012085 19.46002197 C117.80792572 20.19063339 117.81464294 20.92124481 117.82156372 21.67399597 C117.84053965 24.08605784 117.84446789 26.4978413 117.84661865 28.90997314 C117.85304765 30.59142673 117.85977608 32.2728792 117.86679077 33.95433044 C117.87876307 37.47904045 117.88247173 41.00365245 117.88128662 44.52838135 C117.88108361 49.03426888 117.90836691 53.53952442 117.94283104 58.04526234 C117.96512427 61.51894488 117.9691234 64.99247602 117.96806717 68.46622276 C117.9704202 70.1267381 117.97922697 71.78725779 117.9947319 73.44770241 C118.01443869 75.77647081 118.00853633 78.10388569 117.996521 80.43267822 C118.00776001 81.11188324 118.01899902 81.79108826 118.03057861 82.49087524 C117.96083156 87.83950293 116.45463609 90.82648966 113.51068115 95.14044189 C109.05928951 98.59254154 105.59644161 100.25786353 99.98976135 100.28761292 C98.59996063 100.29834587 98.59996063 100.29834587 97.18208313 100.30929565 C96.16750534 100.31198456 95.15292755 100.31467346 94.10760498 100.31744385 C93.03737091 100.32401505 91.96713684 100.33058624 90.86447144 100.33735657 C87.31555107 100.35709915 83.76667305 100.36875486 80.2177124 100.37872314 C78.39989541 100.38483644 78.39989541 100.38483644 76.54535484 100.39107323 C70.13007146 100.41193887 63.7148095 100.42623802 57.29949951 100.43560791 C50.67621604 100.44666836 44.05326889 100.48106316 37.43010426 100.52077961 C32.33509195 100.54693842 27.24015984 100.55529917 22.14508629 100.55888939 C19.70389219 100.56375784 17.26270174 100.5753791 14.82157326 100.59392738 C11.40102205 100.61830025 7.98134162 100.61735656 4.56072998 100.6104126 C3.05404503 100.62962769 3.05404503 100.62962769 1.516922 100.64923096 C-4.64943083 100.60371052 -9.35661989 99.69813216 -14.48931885 96.14044189 C-19.08844376 91.30546443 -19.64118355 87.37432592 -19.6663208 80.93438721 C-19.672892 80.20392181 -19.6794632 79.47345642 -19.68623352 78.72085571 C-19.70594333 76.30342502 -19.71762464 73.88605643 -19.7276001 71.46856689 C-19.73167562 70.64158043 -19.73575115 69.81459396 -19.73995018 68.9625473 C-19.76080222 64.58434805 -19.77510701 60.20618005 -19.78448486 55.82794189 C-19.79554046 51.31421625 -19.82993273 46.80098479 -19.86965656 42.28743362 C-19.89585 38.80947985 -19.90417916 35.33164328 -19.90776634 31.85359955 C-19.91262619 30.19028134 -19.92422304 28.52696816 -19.94280434 26.86374664 C-19.96725227 24.53012884 -19.96622098 22.19778238 -19.95928955 19.86407471 C-19.97209961 19.18329865 -19.98490967 18.50252258 -19.99810791 17.80111694 C-19.94057222 12.45868413 -18.38522583 9.46977434 -15.48931885 5.14044189 C-11.01491258 1.31364706 -5.75482047 0.02208923 0 0 Z M-2.48931885 17.14044189 C-2.48931885 38.92044189 -2.48931885 60.70044189 -2.48931885 83.14044189 C31.50068115 83.14044189 65.49068115 83.14044189 100.51068115 83.14044189 C100.51068115 61.36044189 100.51068115 39.58044189 100.51068115 17.14044189 C66.52068115 17.14044189 32.53068115 17.14044189 -2.48931885 17.14044189 Z " fill="#000000" transform="translate(350.48931884765625,379.85955810546875)"/>
<path d="M0 0 C0.94336212 -0.00860046 1.88672424 -0.01720093 2.8586731 -0.02606201 C3.89195236 -0.03032196 4.92523163 -0.03458191 5.98982239 -0.03897095 C7.0795636 -0.04714844 8.16930481 -0.05532593 9.29206848 -0.06375122 C12.90591379 -0.08860544 16.5197198 -0.10512196 20.13362122 -0.11953735 C21.98453589 -0.12752287 21.98453589 -0.12752287 23.87284279 -0.13566971 C29.73118822 -0.15964527 35.58951746 -0.17888588 41.44789809 -0.19169176 C48.19796186 -0.20674134 54.9475409 -0.24180828 61.69741935 -0.29369295 C67.55307924 -0.33716028 73.40857719 -0.35304708 79.26438332 -0.35942459 C81.75024971 -0.36613863 84.23610843 -0.38136449 86.72186852 -0.4053154 C90.2048201 -0.43695804 93.6864521 -0.43700413 97.16950989 -0.42959595 C98.192668 -0.44600128 99.21582611 -0.46240662 100.26998901 -0.47930908 C106.82124761 -0.42239135 111.50358042 0.61659407 116.40315247 5.15390015 C120.14681643 9.61681288 120.90412699 13.9977801 120.90486145 19.73812866 C120.91296593 20.82248199 120.91296593 20.82248199 120.92123413 21.92874146 C120.93365126 24.29719104 120.91728043 26.66440825 120.89924622 29.0328064 C120.89940135 30.68994714 120.90089275 32.34708824 120.90365601 34.00422668 C120.90503679 37.46826318 120.89253476 40.93188402 120.8697052 44.39584351 C120.84129907 48.82658822 120.84406812 53.25664404 120.85679531 57.68743992 C120.86376331 61.10620465 120.85595082 64.52481129 120.84353828 67.94355583 C120.83903623 69.57695852 120.83867605 71.21037825 120.84260368 72.84378242 C120.84552758 75.12922872 120.82895488 77.41373851 120.8072052 79.69906616 C120.80180222 80.996996 120.79639923 82.29492584 120.79083252 83.63218689 C120.29961507 88.09444121 118.94974362 91.49711929 115.86799622 94.7984314 C111.86842471 97.85692725 109.82989114 99.27562275 104.83717346 99.30107117 C103.87546738 99.30822647 102.91376129 99.31538177 101.9229126 99.32275391 C100.86419449 99.32544281 99.80547638 99.32813171 98.7146759 99.3309021 C97.60236099 99.3374733 96.49004608 99.34404449 95.34402466 99.35081482 C91.65019164 99.37058179 87.95639933 99.38221803 84.26252747 99.3921814 C83.00310585 99.39625692 81.74368423 99.40033245 80.44609833 99.40453148 C74.46814452 99.4232525 68.49021548 99.43781478 62.51224017 99.44614345 C55.6156335 99.45591087 48.71934821 99.48221613 41.82285476 99.52264434 C35.84704213 99.55647076 29.87138522 99.56829079 23.89546967 99.57234764 C21.35493542 99.57722447 18.81440487 99.58886943 16.27393341 99.60738564 C12.71876345 99.63168655 9.16443444 99.63082805 5.60920715 99.62387085 C4.55858597 99.63668091 3.50796478 99.64949097 2.42550659 99.66268921 C-3.58478212 99.61979612 -7.01788179 99.15310559 -11.59684753 95.15390015 C-15.92300522 90.24312656 -16.74938068 87.35449738 -16.77384949 80.95370483 C-16.78042068 80.2120256 -16.78699188 79.47034637 -16.79376221 78.70619202 C-16.81350898 76.24605207 -16.82516182 73.78597325 -16.83512878 71.32577515 C-16.83920431 70.4855909 -16.84327984 69.64540665 -16.84747887 68.77976227 C-16.86834711 64.33139796 -16.88264463 59.88306455 -16.89201355 55.43466187 C-16.90306983 50.8434635 -16.93745827 46.2527509 -16.97718525 41.66172409 C-17.00335523 38.12890737 -17.01170579 34.59620621 -17.01529503 31.06330109 C-17.0201613 29.37124609 -17.03177651 27.67919626 -17.05033302 25.98723602 C-17.07472977 23.61499304 -17.07375884 21.2440041 -17.06681824 18.87167358 C-17.0796283 18.17638046 -17.09243835 17.48108734 -17.1056366 16.76472473 C-17.05266853 11.78169377 -15.68174518 9.00812787 -12.59684753 5.15390015 C-8.47440509 1.43364721 -5.51890209 0.037497 0 0 Z M0.40315247 17.15390015 C0.40315247 38.60390015 0.40315247 60.05390015 0.40315247 82.15390015 C34.39315247 82.15390015 68.38315247 82.15390015 103.40315247 82.15390015 C103.40315247 60.70390015 103.40315247 39.25390015 103.40315247 17.15390015 C69.41315247 17.15390015 35.42315247 17.15390015 0.40315247 17.15390015 Z " fill="#000000" transform="translate(24.596847534179688,379.8460998535156)"/>
<path d="M0 0 C1.11010941 -0.0098568 1.11010941 -0.0098568 2.24264526 -0.01991272 C4.69797871 -0.03966194 7.15325084 -0.05131379 9.60864258 -0.0612793 C10.44757868 -0.06535482 11.28651478 -0.06943035 12.15087318 -0.07362938 C16.59390645 -0.09450014 21.03690877 -0.10879573 25.47998047 -0.11816406 C30.06211313 -0.12921194 34.64375795 -0.16358991 39.2257185 -0.20333576 C42.7542865 -0.22953 46.28273897 -0.23785853 49.81139565 -0.24144554 C51.49983313 -0.24630671 53.18826561 -0.25790733 54.87660789 -0.27648354 C57.24625154 -0.30092859 59.6146429 -0.2999004 61.984375 -0.29296875 C62.67607285 -0.30577881 63.36777069 -0.31858887 64.08042908 -0.33178711 C69.47589622 -0.27455541 72.46700853 1.20611662 76.81567383 4.17700195 C80.61762777 8.97947009 81.93322384 12.68360283 81.95611572 18.70428467 C81.96182587 19.60695068 81.96753601 20.5096167 81.97341919 21.43963623 C81.97509598 22.91403168 81.97509598 22.91403168 81.97680664 24.41821289 C81.984254 25.97989197 81.984254 25.97989197 81.99185181 27.57312012 C82.00646276 31.01921245 82.01327394 34.46525873 82.01879883 37.91137695 C82.02455147 40.30788169 82.03030919 42.70438641 82.03607178 45.10089111 C82.04657894 50.12789118 82.05242338 55.15487526 82.0559082 60.18188477 C82.06139013 66.61563106 82.08541314 73.04916543 82.11388016 79.48284531 C82.13252714 84.43459688 82.13771326 89.38629764 82.13924408 94.33808136 C82.14226682 96.70948698 82.15028254 99.08089178 82.16342926 101.45226288 C82.18053122 104.77440899 82.17859903 108.09604032 82.17211914 111.41821289 C82.18133392 112.39304626 82.19054871 113.36787964 82.20004272 114.37225342 C82.15982319 120.97262161 81.49151288 126.97207654 77.09692383 132.2355957 C76.50911133 132.69063477 75.92129883 133.14567383 75.31567383 133.61450195 C74.72786133 134.08758789 74.14004883 134.56067383 73.53442383 135.0480957 C69.75256722 137.53208788 66.20463212 137.32029901 61.80908203 137.35400391 C61.09973007 137.3605751 60.39037811 137.3671463 59.65953064 137.37391663 C57.31183765 137.39362623 54.96420866 137.40530872 52.61645508 137.4152832 C51.81278189 137.41935873 51.0091087 137.42343426 50.18108177 137.42763329 C45.92492303 137.44848691 41.66879642 137.46279007 37.41259766 137.47216797 C33.02899976 137.48321386 28.64591206 137.51759435 24.26249409 137.55733967 C20.88143509 137.58356294 17.50049644 137.59186498 14.11934471 137.59544945 C12.50430047 137.60030291 10.88926115 137.6118814 9.27431679 137.63048744 C-6.56532366 137.80159381 -6.56532366 137.80159381 -13.18432617 133.17700195 C-16.68993219 128.77252259 -18.30182017 125.24912406 -18.33149719 119.65608215 C-18.3386525 118.72954834 -18.3458078 117.80301453 -18.35317993 116.84840393 C-18.35586884 115.83382614 -18.35855774 114.81924835 -18.36132812 113.77392578 C-18.37118492 112.16857468 -18.37118492 112.16857468 -18.38124084 110.53079224 C-18.40098343 106.98187187 -18.41263914 103.43299385 -18.42260742 99.8840332 C-18.42668295 98.67215521 -18.43075848 97.46027721 -18.4349575 96.21167564 C-18.45582315 89.79639226 -18.47012229 83.3811303 -18.47949219 76.96582031 C-18.49055264 70.34253684 -18.52494744 63.71958969 -18.56466389 57.09642506 C-18.5908227 52.00141276 -18.59918345 46.90648064 -18.60277367 41.81140709 C-18.60764212 39.37021299 -18.61926338 36.92902254 -18.63781166 34.48789406 C-18.66218453 31.06734285 -18.66124084 27.64766242 -18.65429688 24.22705078 C-18.66710693 23.22259415 -18.67991699 22.21813751 -18.69311523 21.1832428 C-18.64765008 15.02437885 -17.75313591 10.29755438 -14.18432617 5.17700195 C-9.41171515 0.74529172 -6.32729186 0.02424198 0 0 Z M-1.18432617 17.17700195 C-1.27959654 18.51773012 -1.30621387 19.86342699 -1.30458069 21.20753479 C-1.30595535 22.07556732 -1.30733002 22.94359985 -1.30874634 23.8379364 C-1.30515106 24.79746719 -1.30155579 25.75699799 -1.29785156 26.74560547 C-1.29799759 27.75036926 -1.29814362 28.75513306 -1.29829407 29.79034424 C-1.29759447 33.12888713 -1.28979991 36.467375 -1.28198242 39.8059082 C-1.28011841 42.11376413 -1.27869443 44.42162046 -1.2776947 46.72947693 C-1.27386822 52.81718021 -1.26403682 58.90485981 -1.25299072 64.99255371 C-1.24098549 72.28959412 -1.23637498 79.58664243 -1.23053741 86.88368988 C-1.22082513 97.98147707 -1.20166948 109.07921224 -1.18432617 120.17700195 C20.59567383 120.17700195 42.37567383 120.17700195 64.81567383 120.17700195 C64.84473634 101.89477694 64.84473634 101.89477694 64.86450195 83.61254883 C64.87049102 76.16128837 64.87759301 68.71004015 64.89111328 61.25878906 C64.90194004 55.25473331 64.90795021 49.25069066 64.91055107 43.2466259 C64.9124057 40.95038585 64.91602704 38.65414656 64.92140388 36.35791206 C64.92861151 33.15379381 64.92966489 29.94973045 64.92919922 26.74560547 C64.93459213 25.30630928 64.93459213 25.30630928 64.94009399 23.8379364 C64.938032 22.5358876 64.938032 22.5358876 64.93592834 21.20753479 C64.93685014 20.44889916 64.93777193 19.69026354 64.93872166 18.90863895 C65.00355721 17.14648247 65.00355721 17.14648247 63.81567383 16.17700195 C61.82679889 16.07769663 59.83436966 16.04900734 57.84301758 16.04760742 C56.56499268 16.04445526 55.28696777 16.0413031 53.97021484 16.03805542 C52.56453416 16.0398452 51.15885378 16.04189615 49.75317383 16.04418945 C48.3221027 16.04351637 46.89103168 16.04254631 45.45996094 16.04129028 C42.45710158 16.03981351 39.45427193 16.04196719 36.45141602 16.04663086 C32.59414812 16.05232815 28.73694979 16.04904903 24.87968445 16.0430584 C21.92353792 16.03945221 18.967408 16.04059163 16.01126099 16.04318619 C14.58863314 16.0438553 13.1660038 16.04302758 11.74337769 16.04070663 C9.75836209 16.03817922 7.77334124 16.04271153 5.78833008 16.04760742 C4.65661377 16.04840302 3.52489746 16.04919861 2.35888672 16.05001831 C-0.11964128 15.88866213 -0.11964128 15.88866213 -1.18432617 17.17700195 Z " fill="#000000" transform="translate(47.184326171875,45.822998046875)"/>
<path d="M0 0 C7.67145845 3.61009809 13.55808621 11.37559127 19.015625 17.734375 C21.00552059 20.00630304 23.04979855 22.221869 25.10668945 24.43310547 C39.40237541 39.81960764 39.40237541 39.81960764 39.27734375 49.4609375 C38.72884616 54.48239427 36.00051272 57.07269553 32.4375 60.375 C28.8592881 62.06651835 27.15349842 62.17589871 23.28515625 62.1015625 C22.29523682 62.08689941 21.30531738 62.07223633 20.28540039 62.05712891 C19.53121826 62.03827637 18.77703613 62.01942383 18 62 C18.00888245 63.03459351 18.01776489 64.06918701 18.0269165 65.13513184 C18.10814295 74.90409786 18.16803281 84.672995 18.20724869 94.4422226 C18.22808808 99.46422952 18.25633898 104.48596295 18.30175781 109.5078125 C18.34534579 114.35780003 18.36916453 119.20752514 18.37950897 124.05769348 C18.38687713 125.90440499 18.4012654 127.75110278 18.42292023 129.59770203 C18.45212682 132.19239899 18.45594887 134.78602344 18.45410156 137.38085938 C18.46848267 138.1375592 18.48286377 138.89425903 18.49768066 139.67388916 C18.44532839 146.50787455 16.04608154 151.49923368 11.75 156.75 C5.48001395 161.87998859 0.22944565 163.76229522 -7.96875 163.44140625 C-14.99660256 162.4180205 -20.20959157 159.47898188 -24.5625 153.875 C-27.94662413 148.94740849 -28.14030055 144.69558577 -28.11352539 138.85668945 C-28.11367142 138.02719788 -28.11381744 137.1977063 -28.1139679 136.34307861 C-28.11327092 133.59978628 -28.10548853 130.85656173 -28.09765625 128.11328125 C-28.09579131 126.21184832 -28.09436776 124.31041491 -28.09336853 122.40898132 C-28.08954936 117.40305252 -28.07972416 112.3971527 -28.06866455 107.39123535 C-28.05843756 102.28361402 -28.05386815 97.175988 -28.04882812 92.06835938 C-28.03810138 82.04556018 -28.02103212 72.0227825 -28 62 C-28.75418213 62.01232666 -29.50836426 62.02465332 -30.28540039 62.03735352 C-31.27531982 62.04694092 -32.26523926 62.05652832 -33.28515625 62.06640625 C-34.26621338 62.07873291 -35.24727051 62.09105957 -36.25805664 62.10375977 C-39.94749024 61.96414537 -42.05090979 61.22979992 -45 59 C-48.87226266 54.10872085 -49.48817613 50.09360831 -49.7265625 43.94140625 C-47.86129682 36.39008874 -40.80371437 30.45982046 -35.5625 25 C-29.60224357 18.75301681 -23.73919583 12.45944686 -18.375 5.6875 C-12.99560468 -0.39971049 -7.87453194 -1.01343828 0 0 Z M-8.50390625 20.4921875 C-9.52920652 21.61454862 -10.54836308 22.74254186 -11.5625 23.875 C-12.09536621 24.46273193 -12.62823242 25.05046387 -13.17724609 25.65600586 C-14.26603305 26.85803839 -15.35262028 28.06206705 -16.43701172 29.26806641 C-17.85467492 30.83896656 -19.28478655 32.39683319 -20.72265625 33.94921875 C-21.51542969 34.81160156 -22.30820312 35.67398438 -23.125 36.5625 C-23.82882813 37.32691406 -24.53265625 38.09132813 -25.2578125 38.87890625 C-26.88146037 40.85567933 -27.97402169 42.66775033 -29 45 C-28.25234375 45.04898438 -27.5046875 45.09796875 -26.734375 45.1484375 C-25.74953125 45.22320312 -24.7646875 45.29796875 -23.75 45.375 C-22.77546875 45.44460937 -21.8009375 45.51421875 -20.796875 45.5859375 C-17.9947101 46.00078314 -16.29217098 46.34679703 -14 48 C-11.57257451 52.50837112 -11.71322397 56.7985165 -11.72875977 61.78173828 C-11.72353302 62.65547089 -11.71830627 63.52920349 -11.71292114 64.42941284 C-11.70270125 66.32111953 -11.69690425 68.21285418 -11.69503975 70.10458755 C-11.69137382 73.09678525 -11.67464294 76.08865223 -11.65428162 79.08078003 C-11.59887631 87.58585478 -11.56812021 96.09097717 -11.54370117 104.59619141 C-11.52785422 109.80214101 -11.49767143 115.00785333 -11.45893669 120.21368027 C-11.4472674 122.19842899 -11.44135617 124.18322006 -11.44125557 126.16800308 C-11.44106418 128.93793908 -11.42284832 131.7072167 -11.40063477 134.47705078 C-11.40521194 135.2999762 -11.40978912 136.12290161 -11.414505 136.97076416 C-11.46973163 141.12155006 -11.46973163 141.12155006 -9.66342068 144.70664787 C-7.94860228 146.25947731 -7.94860228 146.25947731 -5 146.4375 C-2.01011137 146.28241161 -2.01011137 146.28241161 -0.33654785 144.51916504 C1.6082708 140.85351316 1.41475558 137.30568231 1.38476562 133.25585938 C1.3901384 132.37412552 1.39551117 131.49239166 1.40104675 130.5839386 C1.41082277 128.6714853 1.41376943 126.75898765 1.41069031 124.84651184 C1.40621552 121.82043246 1.42020251 118.79493886 1.43908691 115.7689209 C1.47588079 109.34595682 1.48958365 102.92305397 1.5 96.5 C1.51206992 89.0573014 1.53355515 81.61488787 1.58000183 74.1723175 C1.59359726 71.18975717 1.58939674 68.20755489 1.58459473 65.22497559 C1.59393367 63.39802592 1.60410207 61.57108024 1.61523438 59.74414062 C1.60908615 58.9138887 1.60293793 58.08363678 1.59660339 57.22822571 C1.63203765 53.92178995 1.75370596 51.45774386 3.33654785 48.51599121 C6.36631623 45.75480434 9.76424202 45.76059183 13.6875 45.4375 C14.68136719 45.35371094 15.67523438 45.26992187 16.69921875 45.18359375 C17.83810547 45.09271484 17.83810547 45.09271484 19 45 C14.67713126 38.90722735 9.86742603 33.49817168 4.6875 28.125 C3.25184564 26.6295797 1.81814781 25.1322778 0.38671875 23.6328125 C-0.24016846 22.98199707 -0.86705566 22.33118164 -1.51293945 21.66064453 C-3 20 -3 20 -4 18 C-6.35254245 17.76485125 -6.35254245 17.76485125 -8.50390625 20.4921875 Z " fill="#000000" transform="translate(84,200)"/>
<path d="M0 0 C4.82340407 3.08463796 8.78932979 6.83327653 12.7421875 10.94921875 C14.5739026 12.82131234 16.45824139 14.54470437 18.44140625 16.25390625 C21.96171412 19.29322156 25.43427033 22.37937045 28.87890625 25.50390625 C29.3780957 25.95096924 29.87728516 26.39803223 30.39160156 26.85864258 C40.1710458 35.76457359 40.1710458 35.76457359 40.69140625 40.81640625 C40.89703152 46.24942212 39.4829019 50.81633585 35.97900391 54.97265625 C33.87903366 57.05789165 31.71834737 59.04080324 29.50390625 61.00390625 C28.40852539 62.00647461 28.40852539 62.00647461 27.29101562 63.02929688 C23.7206745 66.28339875 20.0925354 69.46869583 16.44921875 72.640625 C13.46306277 75.24056705 10.60454763 77.94309559 7.75390625 80.69140625 C2.68620567 85.22444117 -1.72889501 88.00987351 -8.66015625 87.90625 C-14.14310374 87.10856366 -16.89645656 84.94843056 -20.21484375 80.59765625 C-22.27418988 77.47921782 -22.41873702 75.53258115 -22.37109375 71.81640625 C-22.36207031 70.90632813 -22.35304688 69.99625 -22.34375 69.05859375 C-22.33214844 68.35992187 -22.32054687 67.66125 -22.30859375 66.94140625 C-23.27832626 66.94584747 -24.24805878 66.9502887 -25.24717712 66.9548645 C-34.41251661 66.99551248 -43.57783766 67.02543942 -52.74324703 67.04503059 C-57.45460217 67.05544138 -62.16588419 67.06955092 -66.87719727 67.09228516 C-71.4289121 67.11411033 -75.98055687 67.1259952 -80.53232002 67.13116074 C-82.26373967 67.13483918 -83.99515574 67.14202205 -85.72654533 67.15286636 C-108.68755707 67.29088255 -108.68755707 67.29088255 -116.51171875 60.828125 C-121.25607281 55.84655324 -123.57362137 50.23036689 -123.87109375 43.37890625 C-123.45059495 35.73445371 -121.05428941 30.22620011 -115.43359375 25.00390625 C-109.89769919 20.26365646 -104.08581957 19.64690869 -97.00830078 19.71435547 C-96.19787827 19.71406342 -95.38745575 19.71377136 -94.55247498 19.71347046 C-91.89034079 19.71485688 -89.22849117 19.73038551 -86.56640625 19.74609375 C-84.71410271 19.74982633 -82.86179719 19.75267214 -81.00949097 19.75466919 C-76.14659118 19.76228637 -71.28381184 19.78191838 -66.42095947 19.80407715 C-61.4538333 19.82457688 -56.48668758 19.83367972 -51.51953125 19.84375 C-41.78249931 19.8651661 -32.04555657 19.89927888 -22.30859375 19.94140625 C-22.32925903 18.91732666 -22.32925903 18.91732666 -22.3503418 17.87255859 C-22.36105713 16.9748877 -22.37177246 16.0772168 -22.3828125 15.15234375 C-22.40347778 13.81888916 -22.40347778 13.81888916 -22.42456055 12.45849609 C-22.20120902 7.61059238 -20.28728218 4.84669305 -16.80859375 1.62890625 C-11.73194004 -1.79783501 -5.63508519 -2.58393923 0 0 Z M-5.30859375 18.94140625 C-5.36917969 19.76125 -5.42976563 20.58109375 -5.4921875 21.42578125 C-5.61787109 23.04226562 -5.61787109 23.04226562 -5.74609375 24.69140625 C-5.86791016 26.29242188 -5.86791016 26.29242188 -5.9921875 27.92578125 C-6.24950148 30.37820587 -6.62671593 32.58061916 -7.30859375 34.94140625 C-11.55037893 36.12958415 -15.67744663 36.0860382 -20.05273438 36.08325195 C-21.37533516 36.08846359 -21.37533516 36.08846359 -22.72465515 36.09378052 C-24.63712434 36.10112558 -26.54960199 36.10647762 -28.46208191 36.11007118 C-31.48801583 36.11724242 -34.51378815 36.13291242 -37.53967285 36.15141296 C-46.14214922 36.20386304 -54.74453498 36.251892 -63.34716797 36.26733398 C-68.61039452 36.27740104 -73.87321138 36.30668835 -79.13627625 36.34865379 C-81.14252121 36.36098215 -83.14882398 36.36608171 -85.15510559 36.36385536 C-87.95866856 36.36150899 -90.76104962 36.3836162 -93.56445312 36.41137695 C-94.80983101 36.40147484 -94.80983101 36.40147484 -96.08036804 36.39137268 C-99.71576774 36.45058948 -101.86779757 36.6136793 -104.82775879 38.81437683 C-106.48344908 40.87118742 -106.48344908 40.87118742 -106.74609375 43.50390625 C-106.23276954 46.36385541 -105.61939566 47.22970113 -103.30859375 48.94140625 C-99.41512573 50.23922892 -95.72010384 50.08582016 -91.66210938 50.08325195 C-90.77891525 50.08672638 -89.89572113 50.09020081 -88.98576355 50.09378052 C-87.06727224 50.10113409 -85.14877243 50.1064816 -83.23027039 50.11007118 C-80.19628978 50.11723129 -77.16247139 50.13289297 -74.12854004 50.15141296 C-65.5022194 50.20391499 -56.87598883 50.25189711 -48.24951172 50.26733398 C-42.97447493 50.27739322 -37.69984777 50.30666163 -32.42497253 50.34865379 C-30.41231885 50.36099468 -28.3996074 50.36607945 -26.38691711 50.36385536 C-23.57585616 50.3615127 -20.76597947 50.38358798 -17.95507812 50.41137695 C-17.11965988 50.40477554 -16.28424164 50.39817413 -15.42350769 50.39137268 C-9.81167193 50.48277511 -9.81167193 50.48277511 -7.3001709 52.77238464 C-5.93223528 55.76467013 -5.78489151 58.41545099 -5.62109375 61.69140625 C-5.55535156 62.861875 -5.48960937 64.03234375 -5.421875 65.23828125 C-5.38449219 66.1303125 -5.34710938 67.02234375 -5.30859375 67.94140625 C3.85629576 60.11306313 12.82906085 52.1095346 21.69140625 43.94140625 C20.33712164 40.83727864 18.92006372 39.02664901 16.31640625 36.87890625 C13.71526917 34.68672308 11.15918317 32.46830812 8.671875 30.1484375 C8.14835449 29.66060791 7.62483398 29.17277832 7.08544922 28.67016602 C6.05170758 27.70360641 5.02065918 26.73415615 3.99267578 25.76147461 C1.07660685 23.04843541 -1.81574923 20.8570431 -5.30859375 18.94140625 Z " fill="#000000" transform="translate(265.30859375,71.05859375)"/>
<path d="M0 0 C6.82166397 4.1016334 10.37231081 9.87335022 12.5625 17.4375 C12.93846762 20.26119055 12.94465971 23.02777761 12.90307617 25.87304688 C12.90373329 27.07448837 12.90373329 27.07448837 12.90440369 28.30020142 C12.90233172 30.91914172 12.87907701 33.53742304 12.85546875 36.15625 C12.84986711 37.98327281 12.8455997 39.81030016 12.84260559 41.6373291 C12.8312015 46.42464845 12.80177287 51.21169078 12.76849365 55.99890137 C12.73769675 60.89245864 12.72407976 65.78606106 12.70898438 70.6796875 C12.67689861 80.2657461 12.62575638 89.85159993 12.5625 99.4375 C13.31668213 99.42009766 14.07086426 99.40269531 14.84790039 99.38476562 C15.83781982 99.37123047 16.82773926 99.35769531 17.84765625 99.34375 C18.82871338 99.32634766 19.80977051 99.30894531 20.82055664 99.29101562 C24.83270783 99.50535902 26.7042741 100.64898692 29.5625 103.4375 C33.10842102 108.22665552 34.01064071 112.29531718 33.3125 118.1640625 C31.23042765 124.4753443 26.24349123 129.11852901 21.75 133.8125 C20.48869486 135.1462958 19.22826713 136.48092189 17.96875 137.81640625 C17.37320313 138.44691895 16.77765625 139.07743164 16.1640625 139.72705078 C13.20646989 142.88572362 10.3890533 146.16218112 7.5625 149.4375 C6.00747819 151.23566096 4.44458337 153.02703543 2.875 154.8125 C2.14925781 155.64523437 1.42351562 156.47796875 0.67578125 157.3359375 C-2.95073564 160.94234431 -5.73834219 161.74143336 -10.8125 161.8125 C-11.72773438 161.84085938 -12.64296875 161.86921875 -13.5859375 161.8984375 C-20.29197772 160.81444744 -24.54482198 155.50130996 -28.875 150.6875 C-29.44774658 150.06061279 -30.02049316 149.43372559 -30.6105957 148.7878418 C-34.01889824 145.04621842 -37.39169196 141.27436477 -40.68359375 137.4296875 C-42.08053797 135.84295799 -43.51979271 134.29350493 -44.97265625 132.7578125 C-55.23178368 121.86394769 -55.23178368 121.86394769 -55.55078125 115 C-55.28562302 108.85564376 -53.93220652 105.61862234 -49.4375 101.4375 C-46.13568818 99.34088515 -43.55956383 99.220308 -39.6875 99.3125 C-38.70265625 99.33054687 -37.7178125 99.34859375 -36.703125 99.3671875 C-35.95546875 99.39039063 -35.2078125 99.41359375 -34.4375 99.4375 C-34.44638245 98.43240387 -34.45526489 97.42730774 -34.4644165 96.39175415 C-34.54574187 86.88830386 -34.60557992 77.3849248 -34.64474869 67.88120461 C-34.66556323 62.99601282 -34.69376803 58.11110349 -34.73925781 53.22607422 C-34.78293535 48.50575383 -34.80668316 43.78570397 -34.81700897 39.06519699 C-34.8243612 37.2703768 -34.83871788 35.47557028 -34.86042023 33.68086624 C-35.09786203 13.21894316 -35.09786203 13.21894316 -28.47265625 5 C-27.82167969 4.484375 -27.17070312 3.96875 -26.5 3.4375 C-25.85160156 2.90125 -25.20320313 2.365 -24.53515625 1.8125 C-17.49501826 -2.80226456 -7.72622034 -3.4753076 0 0 Z M-17.4375 19.4375 C-17.82489385 22.5080309 -17.97134259 25.22007542 -17.93579102 28.28930664 C-17.94130981 29.18240036 -17.94682861 30.07549408 -17.95251465 30.99565125 C-17.96183369 32.93266158 -17.96194061 34.86973319 -17.95392036 36.80674934 C-17.94131242 39.87045619 -17.95255894 42.93325926 -17.96995544 45.99693298 C-17.99667871 51.39300847 -18.0022501 56.78886305 -18.00085449 62.18499756 C-17.99862712 70.82608434 -18.01263884 79.46689831 -18.05644035 88.10787773 C-18.06630729 91.12984819 -18.05754737 94.15139316 -18.04774475 97.1733551 C-18.05388676 99.02060224 -18.06079776 100.86784703 -18.06860352 102.71508789 C-18.06088425 103.55828583 -18.05316498 104.40148376 -18.04521179 105.27023315 C-18.09530468 110.99631271 -18.09530468 110.99631271 -19.75102139 113.13100338 C-22.44948301 115.22147222 -25.28647472 115.22682726 -28.625 115.625 C-29.89730469 115.78355469 -31.16960937 115.94210937 -32.48046875 116.10546875 C-33.94419922 116.26982422 -33.94419922 116.26982422 -35.4375 116.4375 C-30.54713714 122.20562029 -25.50843702 127.82798307 -20.4375 133.4375 C-18.74957615 135.31211845 -17.06206029 137.18710436 -15.375 139.0625 C-14.62089844 139.90039062 -13.86679687 140.73828125 -13.08984375 141.6015625 C-12.54457031 142.20742188 -11.99929688 142.81328125 -11.4375 143.4375 C-7.01553611 139.82773356 -3.17022371 136.14911947 0.51953125 131.80078125 C3.59184909 128.24676157 6.80087761 124.81970172 10.00683594 121.38623047 C12.46762296 119.23291934 12.46762296 119.23291934 13.5625 116.4375 C12.58667969 116.32792969 11.61085938 116.21835937 10.60546875 116.10546875 C8.69701172 115.86763672 8.69701172 115.86763672 6.75 115.625 C4.85314453 115.39876953 4.85314453 115.39876953 2.91796875 115.16796875 C-0.53082297 114.41718406 -1.36019199 114.11574199 -3.4375 111.4375 C-3.72674064 108.46075596 -3.83365155 105.69223666 -3.80639648 102.71508789 C-3.81016296 101.82374649 -3.81392944 100.93240509 -3.81781006 100.01405334 C-3.8242488 98.07756159 -3.82390663 96.14103824 -3.81762505 94.20454597 C-3.80853615 91.14074122 -3.81871337 88.07755125 -3.83424377 85.01377869 C-3.87440651 76.302897 -3.87554395 67.59206235 -3.87329102 58.88110352 C-3.87323998 53.55424103 -3.8923775 48.22770981 -3.92262459 42.90093803 C-3.93347537 39.88060742 -3.92130386 36.86090222 -3.90879822 33.84059143 C-3.91770074 31.99015682 -3.92777446 30.13972734 -3.93920898 28.28930664 C-3.92946548 27.44813293 -3.91972198 26.60695923 -3.90968323 25.74029541 C-3.95492538 22.07803595 -4.09450115 19.89888039 -6.31239319 16.91551208 C-8.36329524 15.27948945 -8.36329524 15.27948945 -10.9375 14.9375 C-14.37598185 15.62519637 -15.34133631 16.61787297 -17.4375 19.4375 Z " fill="#000000" transform="translate(410.4375,201.5625)"/>
<path d="M0 0 C3.898897 4.08908709 4.6514292 6.83414493 4.6015625 12.359375 C4.59310303 13.57512207 4.59310303 13.57512207 4.58447266 14.81542969 C4.57722168 15.43321289 4.5699707 16.05099609 4.5625 16.6875 C5.54476059 16.68083817 6.52702118 16.67417633 7.53904724 16.66731262 C16.82209497 16.60634476 26.10510176 16.56145233 35.38830471 16.53206348 C40.16024089 16.51644616 44.93201468 16.49528013 49.70385742 16.46118164 C54.31393581 16.42844741 58.92385857 16.41061744 63.53404427 16.40286827 C65.2878063 16.39734992 67.04156037 16.38657418 68.79525566 16.37030983 C80.74870478 16.26391665 90.71271219 16.19175065 99.90234375 24.8515625 C104.57407958 30.01795271 105.89108129 35.74008511 105.77734375 42.5390625 C105.12348712 49.07762881 102.17845152 54.07154848 97.5625 58.6875 C91.28716765 63.10138545 86.08832116 63.83689917 78.58105469 63.80102539 C77.7806778 63.80117142 76.9803009 63.80131744 76.15567017 63.8014679 C73.51521069 63.8007723 70.87482212 63.7929964 68.234375 63.78515625 C66.40163207 63.78329082 64.56888863 63.78186751 62.73614502 63.78086853 C57.91600158 63.77705322 53.09588835 63.76723133 48.27575684 63.75616455 C43.35571705 63.74592925 38.43567237 63.74136637 33.515625 63.73632812 C23.86457007 63.72560819 14.21353755 63.70854359 4.5625 63.6875 C4.57555176 64.29948242 4.58860352 64.91146484 4.60205078 65.54199219 C4.61220215 66.34797852 4.62235352 67.15396484 4.6328125 67.984375 C4.64586426 68.78198242 4.65891602 69.57958984 4.67236328 70.40136719 C4.47763844 74.45337474 2.96674226 77.27174756 0.1328125 80.12890625 C-3.37935303 83.19549854 -5.9804127 84.5446483 -10.625 85 C-18.54032363 84.35120298 -23.13244697 80.359397 -28.453125 74.75 C-30.88791132 72.21935596 -33.49897169 69.96672532 -36.16015625 67.6796875 C-39.54654955 64.71731944 -42.84176244 61.65689132 -46.13769531 58.59448242 C-48.42576839 56.48033639 -50.72118877 54.46828595 -53.1875 52.5625 C-57.19935409 49.21928826 -58.2788865 45.19432823 -58.8125 40.125 C-57.67239569 29.67404381 -48.26775089 23.15169476 -40.734375 16.703125 C-38.32637479 14.58998196 -35.98780063 12.41452941 -33.64941406 10.22509766 C-12.40120539 -9.63525027 -12.40120539 -9.63525027 0 0 Z M-19.375 21.125 C-20.55939295 22.22840462 -21.74429424 23.33126383 -22.9296875 24.43359375 C-23.52104492 24.9838623 -24.11240234 25.53413086 -24.72167969 26.10107422 C-27.88356489 29.02451333 -31.10035483 31.88646686 -34.31640625 34.75 C-36.4203293 36.67181553 -38.43874308 38.65701678 -40.4375 40.6875 C-29.85007632 50.69248428 -29.85007632 50.69248428 -18.953125 60.35546875 C-17.4375 61.6875 -17.4375 61.6875 -15.859375 63.36328125 C-14.51740475 64.91467664 -14.51740475 64.91467664 -12.4375 64.6875 C-12.41171875 63.79546875 -12.3859375 62.9034375 -12.359375 61.984375 C-12.30265625 60.81390625 -12.2459375 59.6434375 -12.1875 58.4375 C-12.14109375 57.27734375 -12.0946875 56.1171875 -12.046875 54.921875 C-11.30655306 50.99247393 -10.65505735 50.02566171 -7.4375 47.6875 C-4.3706683 47.31037086 -1.66554304 47.1739236 1.3984375 47.22094727 C2.28992493 47.21864105 3.18141235 47.21633484 4.09991455 47.21395874 C6.03367884 47.21133016 7.96747191 47.21777094 9.90118408 47.23221016 C12.96096641 47.25407393 16.0197589 47.25038754 19.07958984 47.23973083 C26.67757221 47.21804769 34.27533519 47.23545759 41.87329102 47.26123047 C48.29507569 47.28260633 54.71622673 47.28461658 61.13800049 47.25831413 C64.15409191 47.25395454 67.16909092 47.27862753 70.18505859 47.30384827 C72.03223156 47.2985784 73.87940116 47.29185654 75.7265625 47.28344727 C76.56616516 47.29835709 77.40576782 47.31326691 78.27081299 47.32862854 C82.27061749 47.27948859 84.13196638 47.08844165 87.11083984 44.3143158 C88.76226618 41.8045392 88.76226618 41.8045392 88.625 39.0625 C87.16241038 35.79318202 85.81692225 35.18459007 82.5625 33.6875 C79.6018264 33.26416708 76.67560053 33.2907674 73.68896484 33.31860352 C72.80547867 33.31483704 71.92199249 33.31107056 71.01173401 33.30718994 C69.09873896 33.30076705 67.18571199 33.30107851 65.27271652 33.30737495 C62.24683021 33.31648637 59.2215633 33.30626201 56.19570923 33.29075623 C47.59500067 33.25064813 38.9943412 33.24945987 30.39355469 33.25170898 C25.12922778 33.25175998 19.86523671 33.23265002 14.60100174 33.20237541 C11.6166269 33.1915179 8.63288389 33.2036975 5.64852905 33.21620178 C3.82476161 33.20730158 2.00099939 33.19722867 0.17724609 33.18579102 C-0.65503006 33.19553452 -1.48730621 33.20527802 -2.34480286 33.21531677 C-7.93550139 33.14510311 -7.93550139 33.14510311 -10.44393921 30.85850525 C-11.8137901 27.86527775 -11.96111942 25.21511166 -12.125 21.9375 C-12.19074219 20.76703125 -12.25648438 19.5965625 -12.32421875 18.390625 C-12.36160156 17.49859375 -12.39898437 16.6065625 -12.4375 15.6875 C-14.83130393 15.6875 -17.61222666 19.47117464 -19.375 21.125 Z " fill="#000000" transform="translate(214.4375,389.3125)"/>
<path d="M0 0 C8.62525739 6.47864161 14.32956857 14.5455302 16.16796875 25.26953125 C17.21457358 37.0729079 15.32832767 46.41357177 8.17578125 55.9453125 C1.31338274 63.88913957 -7.0009902 68.56009765 -17.48046875 69.6484375 C-29.38718501 70.02278659 -38.96919425 67.37269651 -47.83203125 59.26953125 C-55.59877507 51.77309174 -58.93494966 42.87363098 -59.14453125 32.20703125 C-59.15669339 21.05840274 -55.69232941 12.23503416 -47.83203125 4.26953125 C-34.14244485 -7.55643078 -15.73656157 -9.61558176 0 0 Z M-38.64453125 20.5546875 C-42.07983382 25.51553561 -42.70093785 30.3647036 -41.83203125 36.26953125 C-40.04799482 42.28273018 -37.38469174 46.38733722 -32.14453125 49.89453125 C-26.24492027 52.98021188 -21.01405165 53.54199653 -14.63671875 51.6015625 C-8.58050712 48.96492284 -4.72049888 44.53142989 -1.45703125 38.89453125 C0.07315215 32.46776096 -0.22561567 26.93531744 -3.49609375 21.125 C-6.77124604 16.57617738 -11.30784485 12.58481373 -16.83203125 11.26953125 C-26.21838302 10.11206205 -32.86371974 13.12445966 -38.64453125 20.5546875 Z " fill="#000000" transform="translate(261.83203125,240.73046875)"/>
<path d="M0 0 C0.763125 0.42933838 1.52625 0.85867676 2.3125 1.30102539 C4.88061293 2.75356282 7.44121172 4.21860022 10 5.6875 C11.46179688 6.52522949 11.46179688 6.52522949 12.953125 7.37988281 C15.97468235 9.11824674 18.988607 10.86909508 22 12.625 C22.96164063 13.18034424 23.92328125 13.73568848 24.9140625 14.30786133 C25.80867188 14.83404053 26.70328125 15.36021973 27.625 15.90234375 C28.42164063 16.36761475 29.21828125 16.83288574 30.0390625 17.31225586 C32 18.6875 32 18.6875 34 21.6875 C34.4375 25.0625 34.4375 25.0625 34 28.6875 C29.71079938 34.11803298 23.62255935 37.06930092 17.6875 40.4375 C16.61967285 41.04932129 15.5518457 41.66114258 14.45166016 42.29150391 C12.30500909 43.5200538 10.15659449 44.74552787 8.00634766 45.96777344 C5.34734509 47.48880755 2.70724284 49.036159 0.07421875 50.6015625 C-1.32538282 51.42211046 -2.72511137 52.24244189 -4.125 53.0625 C-4.74415283 53.43729492 -5.36330566 53.81208984 -6.0012207 54.19824219 C-9.8122356 56.39533597 -12.62037749 57.5064538 -17 56.6875 C-19.64086914 54.90014648 -19.64086914 54.90014648 -22 51.6875 C-22.74442186 47.70972866 -22.67665211 43.78291262 -22.62890625 39.74609375 C-22.63131821 38.5862648 -22.63373016 37.42643585 -22.63621521 36.23146057 C-22.63523687 33.78293432 -22.62184679 31.33438593 -22.59692383 28.88598633 C-22.56258985 25.13481709 -22.57627432 21.3859998 -22.59570312 17.63476562 C-22.58880554 15.25519829 -22.57913396 12.87563704 -22.56640625 10.49609375 C-22.57136612 9.37311386 -22.57632599 8.25013397 -22.58143616 7.09312439 C-22.56559982 6.04846512 -22.54976349 5.00380585 -22.53344727 3.92749023 C-22.52724869 3.0099144 -22.52105011 2.09233856 -22.5146637 1.1469574 C-21.84422672 -2.05690408 -20.48467183 -3.2530899 -18 -5.3125 C-12.01688835 -8.10461877 -5.16132306 -2.92686188 0 0 Z M-5 17.6875 C-5 22.6375 -5 27.5875 -5 32.6875 C-3.040625 31.73875 -1.08125 30.79 0.9375 29.8125 C2.59072266 29.01199219 2.59072266 29.01199219 4.27734375 28.1953125 C7.09404511 26.97090155 7.09404511 26.97090155 8 24.6875 C6.02237345 23.51822457 4.04285742 22.35214427 2.0625 21.1875 C0.96035156 20.5378125 -0.14179687 19.888125 -1.27734375 19.21875 C-3.6246493 17.60579969 -3.6246493 17.60579969 -5 17.6875 Z " fill="#000000" transform="translate(75,404.3125)"/>
<path d="M0 0 C0.75177017 -0.00287018 1.50354034 -0.00574036 2.27809143 -0.00869751 C3.86061358 -0.01072966 5.44316134 -0.00525942 7.02563477 0.00732422 C9.43108059 0.02336863 11.83484076 0.00745949 14.24023438 -0.01171875 C15.78515992 -0.00973573 17.33008442 -0.00589083 18.875 0 C19.58563095 -0.00607269 20.2962619 -0.01214539 21.02842712 -0.0184021 C26.12996495 0.05245626 29.57270452 1.02829217 34.00390625 3.3984375 C37.54392328 8.99744402 37.46109115 14.47289632 37.37890625 20.9609375 C37.39050781 21.88068359 37.40210938 22.80042969 37.4140625 23.74804688 C37.39143887 28.99295821 37.12615914 32.97410971 34.00390625 37.3984375 C29.71232855 40.78064556 25.63580484 40.83729927 20.37890625 40.796875 C19.14213135 40.80118027 19.14213135 40.80118027 17.88037109 40.80557251 C16.14224559 40.80760822 14.40409692 40.8021129 12.66601562 40.78955078 C10.01249746 40.7734895 7.3605023 40.78941559 4.70703125 40.80859375 C3.01431957 40.80661123 1.32160883 40.80276737 -0.37109375 40.796875 C-1.55566162 40.80598404 -1.55566162 40.80598404 -2.76416016 40.8152771 C-8.53926663 40.74190049 -11.76957631 39.68060268 -15.78369141 35.56616211 C-17.32915477 32.80293835 -17.3837874 30.87276925 -17.39453125 27.71484375 C-17.39839844 26.62236328 -17.40226562 25.52988281 -17.40625 24.40429688 C-17.39464844 23.26798828 -17.38304687 22.13167969 -17.37109375 20.9609375 C-17.38269531 19.82849609 -17.39429688 18.69605469 -17.40625 17.52929688 C-17.40238281 16.43552734 -17.39851563 15.34175781 -17.39453125 14.21484375 C-17.39114746 13.21912354 -17.38776367 12.22340332 -17.38427734 11.19750977 C-16.91611033 7.82170169 -16.12019638 6.06659968 -13.99609375 3.3984375 C-9.44441335 0.37115038 -5.33092237 -0.04542597 0 0 Z M0.00390625 17.3984375 C0.00390625 19.3784375 0.00390625 21.3584375 0.00390625 23.3984375 C6.60390625 23.3984375 13.20390625 23.3984375 20.00390625 23.3984375 C20.00390625 21.4184375 20.00390625 19.4384375 20.00390625 17.3984375 C13.40390625 17.3984375 6.80390625 17.3984375 0.00390625 17.3984375 Z " fill="#000000" transform="translate(68.99609375,119.6015625)"/>
<path d="M0 0 C1.2707563 -0.00855011 1.2707563 -0.00855011 2.56718445 -0.01727295 C4.36012526 -0.02671702 6.15308338 -0.03325458 7.94604492 -0.03710938 C10.67853383 -0.04680163 13.41026613 -0.07782462 16.14257812 -0.109375 C17.8867143 -0.11590678 19.63085583 -0.12115657 21.375 -0.125 C22.18769852 -0.1373468 23.00039703 -0.1496936 23.83772278 -0.16241455 C28.73636382 -0.14333862 32.18313806 0.40586699 36.38671875 3.203125 C37.94921875 6.515625 37.94921875 6.515625 38.38671875 10.203125 C36.3412642 15.72585227 36.3412642 15.72585227 33.38671875 17.203125 C31.98868951 17.30734028 30.58593441 17.35174803 29.18408203 17.36425781 C27.88230515 17.37866913 27.88230515 17.37866913 26.55422974 17.39337158 C25.61465424 17.39762146 24.67507874 17.40187134 23.70703125 17.40625 C22.74272186 17.41195007 21.77841248 17.41765015 20.78488159 17.42352295 C18.74217834 17.43297924 16.69945979 17.43950942 14.65673828 17.44335938 C11.5313048 17.45306418 8.40652903 17.48408142 5.28125 17.515625 C3.298181 17.52215504 1.31510728 17.52740551 -0.66796875 17.53125 C-2.07125931 17.5497702 -2.07125931 17.5497702 -3.50289917 17.56866455 C-9.98365717 17.5464152 -9.98365717 17.5464152 -13.18798828 15.79931641 C-15.35906886 13.36791442 -15.52846795 11.37479823 -15.78515625 8.20703125 C-15.50510002 4.94183016 -13.96276895 3.35682206 -11.61328125 1.203125 C-7.73643703 -0.08915641 -4.04215281 0.02098102 0 0 Z " fill="#000000" transform="translate(67.61328125,96.796875)"/>
<path d="M0 0 C0.98367554 -0.00241196 1.96735107 -0.00482391 2.98083496 -0.00730896 C5.05871618 -0.0063303 7.1366234 0.00706764 9.21435547 0.03198242 C12.39510661 0.06628607 15.57307921 0.05264343 18.75390625 0.03320312 C20.77344933 0.04010168 22.79298523 0.04977414 24.8125 0.0625 C25.76362671 0.05754013 26.71475342 0.05258026 27.69470215 0.04747009 C34.27363679 0.16483378 34.27363679 0.16483378 37.47851562 2.51586914 C39.20096457 5.06508179 39.8326596 6.53810951 39.90625 9.62890625 C37.62914157 15.26746047 37.62914157 15.26746047 34.90625 16.62890625 C33.47790106 16.74328031 32.04454396 16.79824288 30.61181641 16.82177734 C29.7239444 16.83784027 28.83607239 16.8539032 27.92129517 16.87045288 C23.86387876 16.9148652 19.80662591 16.95595643 15.74902344 16.97900391 C13.60731146 16.99557861 11.46565513 17.02288838 9.32421875 17.06103516 C6.23929093 17.1157156 3.1556592 17.13766315 0.0703125 17.15234375 C-0.88708832 17.17501312 -1.84448914 17.1976825 -2.8309021 17.22103882 C-9.45973672 17.19991052 -9.45973672 17.19991052 -12.69775391 14.28369141 C-14.41417748 11.01954486 -14.70038648 9.26872513 -14.09375 5.62890625 C-10.7659877 -0.66402221 -6.4084218 -0.08933005 0 0 Z " fill="#000000" transform="translate(66.09375,74.37109375)"/>
<path d="M0 0 C1.24245483 -0.00218285 1.24245483 -0.00218285 2.51000977 -0.00440979 C4.25833662 -0.00275246 6.00667832 0.00879034 7.75488281 0.02954102 C10.42836586 0.05849483 13.0998651 0.05014759 15.7734375 0.03710938 C17.47396795 0.04334719 19.17449216 0.05173847 20.875 0.0625 C22.07201538 0.05809654 22.07201538 0.05809654 23.29321289 0.05360413 C26.55394424 0.1089292 29.00776583 0.26771274 31.9140625 1.81225586 C34.36950237 4.52622522 34.3758129 6.9182417 34.4375 10.49609375 C33.17649924 13.64859566 32.2917724 15.05590936 29.26367188 16.61621094 C25.84377588 17.68094013 22.9255747 17.75520634 19.34375 17.76171875 C18.34003357 17.76458893 18.34003357 17.76458893 17.31604004 17.76751709 C15.90746686 17.76887236 14.4988809 17.76522208 13.09033203 17.75683594 C10.94404838 17.74612643 8.79860161 17.75675298 6.65234375 17.76953125 C5.278644 17.76820954 3.90494477 17.7656469 2.53125 17.76171875 C1.29052734 17.75946289 0.04980469 17.75720703 -1.22851562 17.75488281 C-5.18515772 17.44776209 -8.02649149 16.44947834 -11.375 14.37109375 C-12.9706983 11.85157012 -12.9739056 9.46146006 -13.05859375 6.53125 C-11.42914907 -0.15332228 -5.81909153 -0.08191818 0 0 Z " fill="#000000" transform="translate(370.5625,402.50390625)"/>
<path d="M0 0 C1.23234375 -0.020625 2.4646875 -0.04125 3.734375 -0.0625 C4.92289062 -0.06765625 6.11140625 -0.0728125 7.3359375 -0.078125 C8.96474854 -0.09214355 8.96474854 -0.09214355 10.62646484 -0.10644531 C14.02342662 0.29736223 15.89103733 1.22798755 18.625 3.25 C20.19435594 6.38871188 19.97701103 8.78855822 19.625 12.25 C17.07777202 15.50013542 15.56541831 17.05687318 11.47460938 17.89697266 C9.73920898 17.90543213 9.73920898 17.90543213 7.96875 17.9140625 C6.06416016 17.92373047 6.06416016 17.92373047 4.12109375 17.93359375 C2.80238281 17.91425781 1.48367188 17.89492188 0.125 17.875 C-1.85306641 17.90400391 -1.85306641 17.90400391 -3.87109375 17.93359375 C-5.14082031 17.92714844 -6.41054688 17.92070312 -7.71875 17.9140625 C-8.87568359 17.90842285 -10.03261719 17.9027832 -11.22460938 17.89697266 C-15.31237698 17.05749775 -16.82003678 15.48852794 -19.375 12.25 C-19.90916903 8.44404569 -19.93069356 6.25554073 -18.0625 2.875 C-13.56569986 -1.45525199 -5.80234587 0.02412618 0 0 Z " fill="#000000" transform="translate(421.375,420.75)"/>
<path d="M0 0 C0.89847656 -0.020625 1.79695313 -0.04125 2.72265625 -0.0625 C7.65354522 -0.09163376 11.16481044 -0.05283016 15.125 3.25 C16.69435594 6.38871188 16.47701103 8.78855822 16.125 12.25 C14.05008724 15.29173382 12.41697311 16.99152629 8.73193359 17.72875977 C5.84673427 17.92445827 3.01602963 17.93176105 0.125 17.875 C-1.35226562 17.90400391 -1.35226562 17.90400391 -2.859375 17.93359375 C-7.62849883 17.90136994 -10.10606424 17.81433033 -14.03125 14.93359375 C-16.44023244 11.42729939 -16.48210221 9.42382772 -15.875 5.25 C-12.39196134 -1.05264138 -6.37747042 0.03628717 0 0 Z " fill="#000000" transform="translate(373.875,421.75)"/>
<path d="M0 0 C0.7940625 -0.02384766 1.588125 -0.04769531 2.40625 -0.07226562 C6.71138257 -0.06150279 8.50426332 0.18382114 12.02734375 2.875 C14 5.5625 14 5.5625 14.5625 9.125 C13.92128811 13.04351711 13.10500781 14.18808226 10 16.5625 C6.88613918 18.11943041 3.60255068 17.78817195 0.1875 17.8125 C-0.88081055 17.8434375 -0.88081055 17.8434375 -1.97070312 17.875 C-6.51206543 17.9086086 -9.40364881 17.38477941 -13 14.5625 C-14.56700442 11.42849115 -14.85164561 7.93094905 -14 4.5625 C-9.88100699 -0.10623908 -5.82692111 -0.08040394 0 0 Z " fill="#000000" transform="translate(372,440.4375)"/>
<path d="M0 0 C0.80695313 -0.01095703 1.61390625 -0.02191406 2.4453125 -0.03320312 C6.25000857 0.0138847 8.36660146 0.11579763 11.53125 2.34765625 C13.51515355 5.33934059 13.57289966 7.16438863 13.390625 10.66015625 C12.78078578 13.63007326 11.44436955 14.86502114 9 16.5625 C3.5974512 18.29039407 -2.47953905 18.20602195 -7.9375 16.8125 C-10.43932936 15.29623978 -11.6293931 14.1594394 -13 11.5625 C-13.54122165 7.92858323 -13.31457698 6.13293292 -11.53515625 2.90625 C-7.85822878 -0.49306661 -4.83608069 -0.14291932 0 0 Z " fill="#000000" transform="translate(428,402.4375)"/>
<path d="M0 0 C2.66740037 2.32321968 3.84012958 4.04763726 4.375 7.5625 C3.7751434 11.84719 2.31100016 13.03562783 -1.0625 15.6875 C-3.9922978 16.16638066 -6.22354413 16.34839951 -9.125 16.25 C-9.83205078 16.26095703 -10.53910156 16.27191406 -11.26757812 16.28320312 C-14.69369613 16.23494794 -16.72909852 15.9289651 -19.52734375 13.90234375 C-21.59701666 10.9163271 -21.63456697 9.12083196 -21.45703125 5.58984375 C-20.84861893 2.65621205 -19.45103486 1.39359633 -17.0625 -0.3125 C-11.57462461 -2.1417918 -5.33755232 -2.28752242 0 0 Z " fill="#000000" transform="translate(413.0625,441.3125)"/>
</svg>
